<svg width="404" height="165" viewBox="0 0 404 165" fill="none" xmlns="http://www.w3.org/2000/svg">
<path d="M162.931 40.2515V121.343H147.729V40.2515H162.931Z" fill="white"/>
<path d="M118.401 106.768H88.2138L83.2187 121.342H67.2562L94.5121 44.7432H112.212L139.467 121.342H123.396L118.401 106.768ZM114.275 94.4941L103.308 62.496L92.34 94.4941H114.275Z" fill="white"/>
<path d="M234.128 59.7568C241.295 59.7568 247.086 62.058 251.502 66.6605C255.918 71.1901 258.126 77.5457 258.126 85.7281V121.343H242.924V87.8101C242.924 82.9885 241.729 79.2989 239.34 76.7421C236.951 74.1121 233.694 72.7973 229.567 72.7973C225.368 72.7973 222.038 74.1121 219.577 76.7421C217.188 79.2989 215.994 82.9885 215.994 87.8101V121.343H200.791V60.6332H215.994V68.1945C218.021 65.5645 220.591 63.5189 223.704 62.058C226.889 60.5236 230.363 59.7568 234.128 59.7568Z" fill="white"/>
<path d="M182.301 62.6284V121.343" stroke="white" stroke-width="15.2222"/>
<path d="M329.538 90.7692C329.538 84.6323 330.733 79.1895 333.122 74.4411C335.583 69.6923 338.877 66.0399 343.003 63.4827C347.202 60.9259 351.871 59.6475 357.011 59.6475C361.499 59.6475 365.409 60.5607 368.739 62.3871C372.141 64.2135 374.856 66.5147 376.883 69.2907V60.6335H392.195V121.343H376.883V112.466C374.928 115.316 372.214 117.69 368.739 119.59C365.336 121.416 361.391 122.329 356.903 122.329C351.835 122.329 347.202 121.014 343.003 118.384C338.877 115.754 335.583 112.065 333.122 107.316C330.733 102.494 329.538 96.9788 329.538 90.7692ZM376.883 90.9884C376.883 87.2623 376.159 84.0843 374.711 81.4543C373.263 78.7515 371.309 76.7059 368.847 75.3179C366.386 73.8567 363.744 73.1259 360.92 73.1259C358.097 73.1259 355.491 73.8203 353.102 75.2083C350.713 76.5963 348.758 78.6419 347.238 81.3447C345.79 83.9747 345.066 87.1163 345.066 90.7692C345.066 94.422 345.79 97.6364 347.238 100.412C348.758 103.116 350.713 105.198 353.102 106.659C355.563 108.12 358.169 108.85 360.92 108.85C363.744 108.85 366.386 108.156 368.847 106.768C371.309 105.307 373.263 103.262 374.711 100.632C376.159 97.9284 376.883 94.714 376.883 90.9884Z" fill="white"/>
<path d="M324.938 89.6732C324.938 91.8648 324.793 93.8376 324.503 95.5908H280.525C280.887 99.974 282.407 103.408 285.085 105.892C287.764 108.376 291.058 109.617 294.967 109.617C300.614 109.617 304.632 107.17 307.02 102.275H323.417C321.68 108.12 318.35 112.942 313.427 116.74C308.504 120.466 302.46 122.329 295.293 122.329C289.501 122.329 284.289 121.05 279.656 118.494C275.095 115.864 271.512 112.174 268.906 107.426C266.372 102.677 265.105 97.198 265.105 90.9884C265.105 84.7055 266.372 79.1895 268.906 74.4411C271.44 69.6923 274.987 66.0399 279.547 63.4827C284.108 60.9259 289.357 59.6475 295.293 59.6475C301.012 59.6475 306.116 60.8891 310.604 63.3731C315.165 65.8571 318.676 69.4003 321.137 74.0027C323.671 78.5323 324.938 83.7555 324.938 89.6732ZM309.192 85.2899C309.12 81.3447 307.708 78.2035 304.957 75.8655C302.206 73.4547 298.84 72.2495 294.858 72.2495C291.094 72.2495 287.909 73.4183 285.303 75.7559C282.769 78.0207 281.212 81.1987 280.633 85.2899H309.192Z" fill="white"/>
<path d="M26.1279 59.192C26.449 58.3661 27.4659 58.0803 28.1639 58.6193L33.3932 62.66C33.9926 63.1223 34.8216 63.1313 35.4332 62.6855L40.7718 58.7947C41.4839 58.2756 42.4904 58.5884 42.7895 59.4217L45.0275 65.6728C45.2835 66.3896 45.9755 66.8507 46.7291 66.8092L53.3024 66.4483C54.1802 66.4001 54.8617 67.2163 54.6658 68.0805L53.1989 74.5571C53.0305 75.2996 53.3629 76.0688 54.0192 76.4454L59.7466 79.7271C60.5103 80.1651 60.6441 81.2212 60.0161 81.8416L55.3116 86.4906C54.7725 87.0233 54.6425 87.85 54.9924 88.5245L58.0496 94.4108C58.4577 95.1964 58.0077 96.1597 57.147 96.3393L50.6994 97.6808C49.9605 97.835 49.4058 98.4601 49.3387 99.2183L48.7616 105.841C48.6836 106.724 47.7884 107.285 46.9692 106.968L40.8199 104.579C40.1163 104.306 39.3192 104.531 38.8568 105.131L34.8188 110.386C34.2802 111.086 33.2262 111.072 32.7071 110.357L28.8146 104.992C28.3684 104.379 27.5766 104.131 26.8657 104.386L20.6599 106.603C19.8313 106.899 18.9487 106.311 18.8952 105.425L18.498 98.7908C18.4518 98.0311 17.9165 97.3911 17.1823 97.2165L10.7693 95.695C9.91461 95.4915 9.49066 94.5172 9.91961 93.7438L13.1389 87.9451C13.5076 87.2805 13.3976 86.4487 12.873 85.9007L8.2978 81.1245C7.68728 80.4869 7.8493 79.4339 8.62396 79.0166L14.4381 75.893C15.1043 75.5353 15.46 74.779 15.3121 74.0322L14.0228 67.5137C13.8516 66.6448 14.5525 65.8517 15.4279 65.9242L21.9913 66.4667C22.7432 66.5289 23.4482 66.0886 23.7241 65.3801L26.1279 59.192Z" fill="url(#paint0_linear_491_296)" stroke="white" stroke-width="0.152222"/>
<path d="M179.446 32.892C179.853 31.9806 181.113 31.6756 181.971 32.2807L183.149 33.1125C183.719 33.5143 184.512 33.5313 185.102 33.1545L186.323 32.3743C187.211 31.8067 188.454 32.1656 188.813 33.0934L189.306 34.3687C189.545 34.9848 190.202 35.3867 190.924 35.3578L192.418 35.2978C193.505 35.2542 194.335 36.163 194.082 37.119L193.734 38.433C193.566 39.0677 193.878 39.7271 194.503 40.0551L195.796 40.7345C196.736 41.2286 196.891 42.3986 196.106 43.0792L195.027 44.0147C194.506 44.4668 194.374 45.1738 194.703 45.7549L195.384 46.9578C195.88 47.8328 195.31 48.8928 194.242 49.082L192.775 49.3419C192.065 49.4675 191.532 49.9982 191.461 50.6477L191.314 51.9922C191.207 52.9705 190.093 53.5837 189.082 53.2213L187.691 52.7234C187.02 52.4828 186.254 52.6682 185.805 53.18L184.877 54.2393C184.201 55.0098 182.898 54.9819 182.264 54.1833L181.392 53.0851C180.971 52.5547 180.215 52.3364 179.532 52.5479L178.117 52.9856C177.088 53.3041 176.007 52.6436 175.952 51.6619L175.876 50.3126C175.84 49.6608 175.334 49.1077 174.633 48.9518L173.181 48.6291C172.124 48.3942 171.611 47.3108 172.152 46.4581L172.895 45.2858C173.254 44.7198 173.16 44.0075 172.663 43.5339L171.635 42.553C170.887 41.8395 171.103 40.6774 172.068 40.2242L173.395 39.6011C174.036 39.3 174.383 38.6551 174.248 38.0139L173.97 36.6864C173.768 35.7207 174.645 34.8487 175.729 34.9389L177.218 35.063C177.937 35.123 178.615 34.7497 178.885 34.1446L179.446 32.892Z" fill="white"/>
<defs>
<linearGradient id="paint0_linear_491_296" x1="65.4316" y1="101.099" x2="31.2216" y2="44.3596" gradientUnits="userSpaceOnUse">
<stop stop-color="#FFDDAF"/>
<stop offset="0.505774" stop-color="#D4F6FF"/>
<stop offset="1" stop-color="#C7E7FF"/>
</linearGradient>
</defs>
</svg>
