<svg width="680" height="416" viewBox="0 0 680 416" fill="none" xmlns="http://www.w3.org/2000/svg" xmlns:xlink="http://www.w3.org/1999/xlink">
<path d="M475.641 19H465.257C465.116 19 465.001 19.1146 465.001 19.256V86.784C465.001 86.9254 465.116 87.04 465.257 87.04H480.705C480.846 87.04 480.961 86.9254 480.961 86.784V19.7333C480.961 19.6012 480.86 19.4908 480.729 19.4785L475.641 19Z" fill="#4DB980"/>
<path d="M475.641 23.5026H465.001" stroke="#FBFBFB" stroke-width="0.128"/>
<rect x="477.001" y="81" width="3" height="12" transform="rotate(90 477.001 81)" fill="#D2CD3E"/>
<rect x="477.001" y="23" width="3" height="12" transform="rotate(90 477.001 23)" fill="#D2CD3E"/>
<path d="M473.425 41.4488C472.04 39.6009 469.22 37.0138 469.012 41.4488C468.809 45.7894 471.49 45.5463 471.604 43.3456C471.609 43.2492 471.602 43.1508 471.583 43.056C471.295 41.5627 470.196 41.7505 470.063 42.9536C470.045 43.1159 470.071 43.2795 470.111 43.4378L471.089 47.2842C471.521 48.354 472.127 50.6104 471.089 51.0772C470.088 51.527 469.329 50.5684 469.275 49.193C469.27 49.0879 469.279 48.9815 469.3 48.8785C469.937 45.7906 474.28 44.7971 472.646 49.6184C471.124 54.109 471.229 56.6569 471.523 57.5762C471.57 57.7213 471.627 57.8624 471.658 58.0116C471.896 59.1519 472.059 61.2181 471.089 61.8728C470.05 62.573 470.137 66.2494 470.31 68" stroke="#FFE8DA" stroke-width="0.3" stroke-linecap="round"/>
<path d="M492.641 4H476.257C476.116 4 476.001 4.11461 476.001 4.256V86.784C476.001 86.9254 476.116 87.04 476.257 87.04H500.705C500.846 87.04 500.961 86.9254 500.961 86.784V4.84849C500.961 4.71437 500.857 4.60299 500.724 4.59318L492.641 4Z" fill="#4D70B9"/>
<rect x="479.151" y="16.15" width="9.7" height="65.7" stroke="#FBFBFB" stroke-width="0.3"/>
<path d="M492.641 9.4953H476.001" stroke="#FBFBFB" stroke-width="0.128"/>
<path d="M492.641 4V87.04" stroke="black" stroke-width="0.256"/>
<path d="M509.641 11H493.257C493.116 11 493.001 11.1146 493.001 11.256V86.784C493.001 86.9254 493.116 87.04 493.257 87.04H517.705C517.846 87.04 517.961 86.9254 517.961 86.784V11.7985C517.961 11.6638 517.857 11.5521 517.722 11.5431L509.641 11Z" fill="#4DB1B9"/>
<rect x="496.001" y="23" width="10" height="58" rx="3" fill="#FFEACD" fill-opacity="0.88"/>
<path d="M509.641 16.032H493.001" stroke="#FBFBFB" stroke-width="0.128"/>
<path d="M509.641 11V87.04" stroke="black" stroke-width="0.256"/>
<path d="M526.401 0H510.017C509.876 0 509.761 0.114611 509.761 0.255996V86.784C509.761 86.9254 509.876 87.04 510.017 87.04H534.465C534.606 87.04 534.721 86.9254 534.721 86.784V0.877064C534.721 0.743295 534.618 0.632077 534.485 0.621818L526.401 0Z" fill="#4D50B9"/>
<path d="M526.401 5.76001H509.761" stroke="black" stroke-width="0.128"/>
<path d="M526.401 0V87.04" stroke="black" stroke-width="0.256"/>
<rect x="511.041" y="14.0479" width="9.91057" height="9.91057" rx="0.256" transform="rotate(-45 511.041 14.0479)" fill="#2F2C83"/>
<rect x="511.041" y="70.3679" width="9.91057" height="9.91057" rx="0.256" transform="rotate(-45 511.041 70.3679)" fill="#2F2C83"/>
<rect x="511.041" y="56.2878" width="9.91057" height="9.91057" rx="0.256" transform="rotate(-45 511.041 56.2878)" fill="#2F2C83"/>
<rect x="511.041" y="42.2079" width="9.91057" height="9.91057" rx="0.256" transform="rotate(-45 511.041 42.2079)" fill="#2F2C83"/>
<rect x="511.041" y="28.1279" width="9.91057" height="9.91057" rx="0.256" transform="rotate(-45 511.041 28.1279)" fill="#2F2C83"/>
<path d="M537.494 15.36H526.657C526.516 15.36 526.401 15.4746 526.401 15.616V86.784C526.401 86.9254 526.516 87.04 526.657 87.04H542.785C542.926 87.04 543.041 86.9254 543.041 86.784V16.1199C543.041 15.9879 542.941 15.8775 542.809 15.865L537.494 15.36Z" fill="#FFDDAF"/>
<rect x="528.601" y="75" width="7" height="7" rx="3" fill="#FCECD8" fill-opacity="0.88"/>
<path d="M537.901 20.1035H526.401" stroke="black" stroke-width="0.128"/>
<path d="M549.014 7.68005H538.177C538.036 7.68005 537.921 7.79466 537.921 7.93605V86.784C537.921 86.9254 538.036 87.04 538.177 87.04H554.305C554.446 87.04 554.561 86.9254 554.561 86.784V8.49406C554.561 8.36305 554.462 8.25318 554.332 8.23947L549.014 7.68005Z" fill="#FFD1DC"/>
<path d="M547.001 83L539.001 83" stroke="#FEEDD6" stroke-width="0.2" stroke-linecap="round"/>
<path d="M548.161 87.04V7.68005" stroke="black" stroke-width="0.3"/>
<path d="M547.001 12L539.001 12" stroke="#FEEDD6" stroke-width="0.2" stroke-linecap="round"/>
<rect x="542.001" y="15" width="1" height="4" rx="0.3" fill="#FEEDD6"/>
<path d="M559.254 7.68005H548.417C548.276 7.68005 548.161 7.79466 548.161 7.93605V86.784C548.161 86.9254 548.276 87.04 548.417 87.04H564.545C564.686 87.04 564.801 86.9254 564.801 86.784V8.49406C564.801 8.36305 564.702 8.25318 564.572 8.23947L559.254 7.68005Z" fill="#FFD1DC"/>
<path d="M557.001 83L549.001 83" stroke="#FEEDD6" stroke-width="0.2" stroke-linecap="round"/>
<path d="M558.401 87.04V7.68005" stroke="black" stroke-width="0.3"/>
<path d="M557.001 12L549.001 12" stroke="#FEEDD6" stroke-width="0.2" stroke-linecap="round"/>
<rect x="552.001" y="15" width="1" height="4" rx="0.3" fill="#FEEDD6"/>
<rect x="554.001" y="15" width="1" height="4" rx="0.3" fill="#FEEDD6"/>
<rect x="291.001" y="87" width="389" height="19" rx="2.56" fill="#AE563E"/>
<path d="M569.494 7.68005H558.657C558.516 7.68005 558.401 7.79466 558.401 7.93605V86.784C558.401 86.9254 558.516 87.04 558.657 87.04H574.785C574.927 87.04 575.041 86.9254 575.041 86.784V8.49406C575.041 8.36305 574.942 8.25318 574.812 8.23947L569.494 7.68005Z" fill="#FFD1DC"/>
<rect x="563.001" y="15" width="1" height="4" rx="0.3" fill="#FEEDD6"/>
<rect x="561.001" y="15" width="1" height="4" rx="0.3" fill="#FEEDD6"/>
<rect x="565.001" y="15" width="1" height="4" rx="0.3" fill="#FEEDD6"/>
<path d="M567.001 12L559.001 12" stroke="#FEEDD6" stroke-width="0.2" stroke-linecap="round"/>
<path d="M567.001 83L559.001 83" stroke="#FEEDD6" stroke-width="0.2" stroke-linecap="round"/>
<path d="M590.401 0H570.177C570.036 0 569.921 0.114611 569.921 0.255996V86.784C569.921 86.9254 570.036 87.04 570.177 87.04H600.385C600.526 87.04 600.641 86.9254 600.641 86.784V0.880499C600.641 0.745315 600.536 0.63343 600.401 0.624998L590.401 0Z" fill="#444444"/>
<path d="M590.401 0V87.04" stroke="black" stroke-width="0.256"/>
<path d="M577.001 0H584.001V87H577.001V0Z" fill="#8F252C" fill-opacity="0.6"/>
<path d="M590.401 5.76001H569.921" stroke="black" stroke-width="0.128"/>
<path d="M428.806 65.5H331.177C330.99 65.5 330.817 65.606 330.734 65.7738C326.638 74.0122 328.638 82.664 330.734 86.7391C330.818 86.9022 330.987 87 331.17 87H428.787C429.094 87 429.329 86.7263 429.285 86.4222C428.256 79.2432 428.827 70.2492 429.306 66.0586C429.34 65.7597 429.107 65.5 428.806 65.5Z" fill="#DFBE91"/>
<path d="M413.496 67H428.788C428.958 67 429.094 67.1445 429.088 67.3147C428.727 76.5529 428.888 82.1718 429.046 84.1714C429.06 84.3484 428.921 84.5 428.743 84.5H413.512C413.423 84.5 413.338 84.4591 413.281 84.391C407.075 76.9117 410.64 69.8074 413.287 67.0867C413.342 67.0296 413.417 67 413.496 67Z" fill="#FFE8DA"/>
<path d="M346.983 81C343.223 78.1835 337.96 72.4448 346.983 72.0224C355.814 71.6089 355.319 77.0635 350.842 77.2957C350.646 77.3059 350.446 77.2909 350.253 77.2537C347.215 76.6662 347.597 74.4305 350.044 74.1613C350.375 74.1249 350.708 74.1761 351.03 74.258L358.855 76.2471C361.032 77.1273 365.622 78.3595 366.572 76.2471C367.487 74.2119 365.537 72.6668 362.738 72.5567C362.525 72.5483 362.308 72.5657 362.099 72.6089C355.816 73.905 353.795 82.74 363.604 79.4157C372.74 76.3194 377.924 76.5324 379.794 77.1313C380.089 77.2259 380.376 77.3423 380.68 77.4056C383 77.8889 387.203 78.2222 388.535 76.2471C389.96 74.1347 397.439 74.3108 401.001 74.6628" stroke="#FFE8DA" stroke-width="0.5" stroke-linecap="round"/>
<path d="M428.727 55.1H331.137C330.971 55.1 330.815 55.1824 330.726 55.3221C328.582 58.676 329.015 62.4542 330.728 65.3207C330.816 65.4678 330.976 65.5551 331.147 65.5551H428.684C429.024 65.5551 429.265 65.2234 429.18 64.8945C428.347 61.6667 428.787 57.8048 429.226 55.7277C429.294 55.4081 429.054 55.1 428.727 55.1Z" fill="#DFD591"/>
<path d="M416.013 56.1H428.678C428.853 56.1 428.99 56.249 428.978 56.4228C428.714 60.2613 428.811 62.702 428.93 63.7449C428.951 63.9309 428.808 64.1 428.621 64.1H416.026C415.967 64.1 415.908 64.0816 415.859 64.0494C410.702 60.6282 413.671 57.3788 415.87 56.137C415.914 56.1121 415.963 56.1 416.013 56.1Z" fill="#FFE8DA"/>
<path d="M336.501 55.12C335.668 56.7867 334.501 61.22 336.501 65.62" stroke="#FFE8DA" stroke-width="0.13"/>
<path d="M339.501 55.12C338.668 56.7867 337.501 61.22 339.501 65.62" stroke="#FFE8DA" stroke-width="0.13"/>
<path d="M405.501 55.12C404.668 56.7867 403.501 61.22 405.501 65.62" stroke="#FFE8DA" stroke-width="0.13"/>
<path d="M408.501 55.12C407.668 56.7867 406.501 61.22 408.501 65.62" stroke="#FFE8DA" stroke-width="0.13"/>
<path d="M339.516 46.75H417.513C417.646 46.75 417.771 46.8159 417.842 46.9275C419.556 49.6081 419.21 52.6277 417.84 54.9187C417.77 55.0363 417.642 55.106 417.505 55.106H339.551C339.279 55.106 339.086 54.8409 339.154 54.5781C339.82 51.9983 339.469 48.9118 339.118 47.2517C339.064 46.9963 339.255 46.75 339.516 46.75Z" fill="#B691DF"/>
<path d="M349.678 47.5493H339.555C339.416 47.5493 339.306 47.6683 339.316 47.8073C339.527 50.8751 339.45 52.8258 339.354 53.6593C339.337 53.808 339.452 53.9431 339.602 53.9431H349.668C349.714 53.9431 349.762 53.9284 349.801 53.9027C353.922 51.1683 351.55 48.5713 349.792 47.5788C349.757 47.559 349.718 47.5493 349.678 47.5493Z" fill="#FFE8DA"/>
<path d="M364.001 52.0386C368.401 50.0386 371.168 51.2052 372.001 52.0386C374.501 52.3719 379.001 52.5386 377.001 50.5386C375.001 48.5386 374.168 49.7052 374.001 50.5386C373.834 52.2052 374.301 55.1386 377.501 53.5386C381.501 51.5386 378.001 47.5386 382.501 49.0386C386.101 50.2386 385.501 53.0386 382.501 53.0386C379.501 52.5386 379.101 49.0386 385.501 49.0386C391.901 49.0386 392.834 50.7052 392.501 51.5386C391.168 52.7052 388.301 54.7386 387.501 53.5386C386.501 52.0386 386.501 47.5386 389.501 48.0386C392.501 48.5386 394.001 50.5386 396.501 50.5386C399.001 50.5386 399.001 48.0386 400.501 49.0386" stroke="black" stroke-width="0.15" stroke-linecap="round"/>
<path d="M598.255 26.4258L590.464 30.8154C590.373 30.8672 590.337 30.9814 590.382 31.0764L617.247 86.8868C617.28 86.956 617.35 87 617.427 87H639.742C639.781 87 639.818 86.989 639.85 86.9682L646.651 82.589C646.737 82.534 646.767 82.4239 646.723 82.3328L619.356 26.512C619.322 26.4435 619.253 26.4 619.176 26.4H598.353C598.319 26.4 598.285 26.4089 598.255 26.4258Z" fill="#6A3135"/>
<path d="M645.301 83.4943H627.301L619.801 87H639.801L645.301 83.4943Z" fill="#FDE6D5"/>
<path d="M598.801 26.4L626.801 82.4926M626.801 82.4926H646.801M626.801 82.4926L617.301 87" stroke="black" stroke-width="0.3" stroke-linecap="round"/>
<path d="M616.414 36.7721C616.456 36.6399 616.617 36.59 616.727 36.675L623.259 41.7352C623.394 41.8396 623.345 42.0539 623.178 42.0891L614.437 43.9292C614.287 43.9608 614.159 43.8186 614.206 43.6725L616.414 36.7721Z" fill="#55292C"/>
<path d="M633.081 73.2397C633.041 73.3688 632.888 73.4222 632.777 73.3457L625.451 68.3095C625.298 68.2039 625.359 67.9642 625.545 67.9456L634.701 67.03C634.844 67.0157 634.954 67.1511 634.912 67.2878L633.081 73.2397Z" fill="#55292C"/>
<rect width="389" height="19" rx="2.56" transform="matrix(-1 0 0 1 389 246)" fill="#AE563E"/>
<path d="M17.5799 214H192.233C192.407 214 192.571 214.093 192.66 214.242C200.158 226.762 196.446 239.954 192.657 246.023C192.567 246.167 192.411 246.25 192.241 246.25H17.6027C17.2896 246.25 17.0533 245.967 17.1075 245.659C19.0339 234.693 17.9484 220.79 17.0826 214.573C17.0404 214.271 17.2745 214 17.5799 214Z" fill="#9192DF"/>
<path d="M45.4004 216.25H17.7993C17.628 216.25 17.4917 216.396 17.4997 216.567C18.1642 230.774 17.8526 239.307 17.5657 242.168C17.5478 242.347 17.6876 242.5 17.8674 242.5H45.3857C45.4652 242.5 45.5436 242.466 45.5996 242.41C56.8142 231.108 50.3243 220.363 45.5915 216.319C45.5377 216.273 45.4711 216.25 45.4004 216.25Z" fill="#FFE8DA"/>
<path d="M163.806 237.25C170.505 233.025 179.884 224.417 163.806 223.784C147.729 223.15 148.998 231.705 157.46 231.705C163.633 230.934 162.801 227.166 157.884 226.961C157.603 226.949 157.321 226.982 157.046 227.041L142.652 230.121C138.774 231.441 130.594 233.289 128.902 230.121C127.209 226.952 131.017 224.576 136.306 224.576C147.941 226.16 151.96 239.943 134.19 234.874C117.223 230.033 107.906 230.585 104.951 231.564C104.694 231.649 104.441 231.733 104.175 231.783C100.147 232.545 92.2205 233.185 89.7659 230.121C87.2273 226.952 73.9 227.216 67.5537 227.744" stroke="#FFE8DA" stroke-width="0.5" stroke-linecap="round"/>
<path d="M23.8227 200.698H148.334C148.545 200.698 148.745 200.803 148.859 200.981C151.595 205.26 151.042 210.081 148.856 213.738C148.744 213.926 148.54 214.037 148.321 214.037H23.8779C23.4446 214.037 23.1365 213.614 23.2448 213.194C24.3081 209.076 23.7468 204.149 23.1862 201.499C23.1 201.091 23.4059 200.698 23.8227 200.698Z" fill="#D591DF"/>
<path d="M40.0439 201.974H23.8852C23.6628 201.974 23.4875 202.164 23.5027 202.386C23.84 207.283 23.7163 210.397 23.5644 211.728C23.5373 211.965 23.7201 212.181 23.9589 212.181H40.0282C40.1026 212.181 40.1783 212.157 40.2403 212.116C46.8201 207.751 43.0323 203.605 40.2269 202.021C40.1708 201.989 40.1084 201.974 40.0439 201.974Z" fill="#FFE8DA"/>
<path d="M141.491 200.723C142.554 202.85 144.042 208.506 141.491 214.12" stroke="#FFE8DA" stroke-width="0.165862"/>
<path d="M137.663 200.723C138.726 202.85 140.215 208.506 137.663 214.12" stroke="#FFE8DA" stroke-width="0.165862"/>
<path d="M53.4564 200.723C54.5196 202.85 56.008 208.506 53.4563 214.12" stroke="#FFE8DA" stroke-width="0.165862"/>
<path d="M49.6288 200.723C50.692 202.85 52.1804 208.506 49.6287 214.12" stroke="#FFE8DA" stroke-width="0.165862"/>
<path d="M103.525 188.6H25.5324C25.3762 188.6 25.2336 188.691 25.1713 188.834C23.4379 192.818 23.7906 197.313 25.1746 200.713C25.2348 200.861 25.3797 200.956 25.5396 200.956H103.503C103.759 200.956 103.948 200.72 103.901 200.47C103.135 196.453 103.552 191.504 103.924 189.069C103.961 188.824 103.773 188.6 103.525 188.6Z" fill="#91BDDF"/>
<path d="M93.347 189.782H103.452C103.589 189.782 103.698 189.898 103.691 190.035C103.463 194.844 103.558 197.822 103.659 198.968C103.672 199.112 103.56 199.236 103.416 199.236H93.3587C93.2966 199.236 93.2352 199.211 93.1909 199.167C89.0912 195.136 91.4424 191.309 93.1972 189.835C93.2394 189.8 93.2919 189.782 93.347 189.782Z" fill="#FFE8DA"/>
<path d="M42.5001 196.42C46.9001 193.463 49.6667 195.188 50.5001 196.42C53.0001 196.913 57.5001 197.16 55.5001 194.202C53.5001 191.245 52.6667 192.97 52.5001 194.202C52.3334 196.667 52.8001 201.004 56.0001 198.638C60.0001 195.681 56.5001 189.766 61.0001 191.984C64.6001 193.759 64.0001 197.899 61.0001 197.899C58.0001 197.16 57.6001 191.984 64.0001 191.984C70.4001 191.984 71.3334 194.449 71.0001 195.681C69.6667 197.406 66.8001 200.413 66.0001 198.638C65.0001 196.42 65.0001 189.766 68.0001 190.505C71.0001 191.245 72.5001 194.202 75.0001 194.202C77.5001 194.202 77.5001 190.505 79.0001 191.984" stroke="#DFD591" stroke-width="0.15" stroke-linecap="round"/>
<path d="M103.525 177H25.5324C25.3762 177 25.2336 177.091 25.1713 177.234C23.4379 181.218 23.7906 185.713 25.1746 189.113C25.2348 189.261 25.3797 189.356 25.5396 189.356H103.503C103.759 189.356 103.948 189.12 103.901 188.87C103.135 184.853 103.552 179.905 103.924 177.469C103.961 177.224 103.773 177 103.525 177Z" fill="#B4DF91"/>
<path d="M93.347 178.182H103.452C103.589 178.182 103.698 178.298 103.691 178.435C103.463 183.244 103.558 186.222 103.659 187.368C103.672 187.512 103.56 187.636 103.416 187.636H93.3587C93.2966 187.636 93.2352 187.611 93.1909 187.567C89.0912 183.536 91.4424 179.709 93.1972 178.235C93.2394 178.2 93.2919 178.182 93.347 178.182Z" fill="#FFE8DA"/>
<path d="M79.0001 184.82C74.6001 181.863 71.8334 183.588 71.0001 184.82C68.5001 185.313 64.0001 185.56 66.0001 182.602C68.0001 179.645 68.8334 181.37 69.0001 182.602C69.1667 185.067 68.7001 189.404 65.5001 187.038C61.5001 184.081 65.0001 178.166 60.5001 180.384C56.9001 182.159 57.5001 186.299 60.5001 186.299C63.5001 185.56 63.9001 180.384 57.5001 180.384C51.1001 180.384 50.1667 182.849 50.5001 184.081C51.8334 185.806 54.7001 188.813 55.5001 187.038C56.5001 184.82 56.5001 178.166 53.5001 178.905C50.5001 179.645 49.0001 182.602 46.5001 182.602C44.0001 182.602 44.0001 178.905 42.5001 180.384" stroke="black" stroke-width="0.15" stroke-linecap="round"/>
<path d="M103.525 165H25.5324C25.3762 165 25.2336 165.091 25.1713 165.234C23.4379 169.218 23.7906 173.713 25.1746 177.113C25.2348 177.261 25.3797 177.356 25.5396 177.356H103.503C103.759 177.356 103.948 177.12 103.901 176.87C103.135 172.853 103.552 167.905 103.924 165.469C103.961 165.224 103.773 165 103.525 165Z" fill="#DFB291"/>
<path d="M93.347 166.182H103.452C103.589 166.182 103.698 166.298 103.691 166.435C103.463 171.244 103.558 174.222 103.659 175.368C103.672 175.512 103.56 175.636 103.416 175.636H93.3587C93.2966 175.636 93.2352 175.611 93.1909 175.567C89.0912 171.536 91.4424 167.709 93.1972 166.235C93.2394 166.2 93.2919 166.182 93.347 166.182Z" fill="#FFE8DA"/>
<path d="M79.0001 172.82C74.6001 169.863 71.8334 171.588 71.0001 172.82C68.5001 173.313 64.0001 173.56 66.0001 170.602C68.0001 167.645 68.8334 169.37 69.0001 170.602C69.1667 173.067 68.7001 177.404 65.5001 175.038C61.5001 172.081 65.0001 166.166 60.5001 168.384C56.9001 170.159 57.5001 174.299 60.5001 174.299C63.5001 173.56 63.9001 168.384 57.5001 168.384C51.1001 168.384 50.1667 170.849 50.5001 172.081C51.8334 173.806 54.7001 176.813 55.5001 175.038C56.5001 172.82 56.5001 166.166 53.5001 166.905C50.5001 167.645 49.0001 170.602 46.5001 170.602C44.0001 170.602 44.0001 166.905 42.5001 168.384" stroke="#FFE8DA" stroke-width="0.15" stroke-linecap="round"/>
<path d="M92.1983 151.019L86.1034 154.657C86.0446 154.692 86.0215 154.766 86.0499 154.829L106.991 200.921C107.013 200.969 107.06 201 107.113 201H124.507C124.534 201 124.561 200.992 124.583 200.977L129.906 197.345C129.96 197.308 129.98 197.237 129.952 197.178L108.62 151.078C108.598 151.03 108.551 151 108.498 151H92.2673C92.243 151 92.2192 151.007 92.1983 151.019Z" fill="#917CC5"/>
<path d="M128.832 198.107H114.814L108.974 201H124.549L128.832 198.107Z" fill="#FDE6D5"/>
<path d="M92.6197 151L114.425 197.281M114.425 197.281H130M114.425 197.281L107.027 201" stroke="black" stroke-width="0.201849" stroke-linecap="round"/>
<path d="M359.988 164H377.684C377.837 164 377.961 164.124 377.961 164.277V245.856C377.961 246.009 377.837 246.133 377.684 246.133H351.277C351.125 246.133 351.001 246.009 351.001 245.856V164.862C351.001 164.717 351.114 164.596 351.259 164.587L359.988 164Z" fill="#B9754D"/>
<rect x="-0.5" y="0.5" width="10" height="62" rx="2.74038" transform="matrix(-1 0 0 1 373.961 175.093)" fill="#B9754D" stroke="#E9E4CA"/>
<path d="M359.988 169.435H377.961" stroke="#FBFBFB" stroke-width="0.138256"/>
<path d="M359.988 164V246.133" stroke="black" stroke-width="0.276513"/>
<path d="M343.321 170H359.705C359.846 170 359.961 170.115 359.961 170.256V245.784C359.961 245.925 359.846 246.04 359.705 246.04H335.257C335.116 246.04 335.001 245.925 335.001 245.784V170.798C335.001 170.664 335.105 170.552 335.24 170.543L343.321 170Z" fill="#98B94D"/>
<path d="M354.736 196.426C350.602 193.446 343.718 187.831 349.256 189.216C354.793 190.6 350.986 194.119 350.121 198.734C349.256 203.348 351.275 216.789 352.428 209.405C353.871 200.176 352.717 201.618 353.294 199.311C353.871 197.003 357.908 201.329 356.755 203.925C355.601 206.521 348.91 203.06 348.679 208.828C348.448 214.597 352.044 218.346 353.871 219.5" stroke="#D2CD3E" stroke-width="0.3"/>
<rect width="10" height="3" rx="1" transform="matrix(-1 0 0 1 356.961 234)" fill="#FFEACD" fill-opacity="0.88"/>
<rect width="10" height="3" rx="1" transform="matrix(-1 0 0 1 356.961 173)" fill="#FFEACD" fill-opacity="0.88"/>
<path d="M343.321 170V246.04" stroke="black" stroke-width="0.256"/>
<path d="M324.321 163H340.705C340.846 163 340.961 163.115 340.961 163.256V245.784C340.961 245.925 340.846 246.04 340.705 246.04H316.257C316.116 246.04 316.001 245.925 316.001 245.784V163.848C316.001 163.714 316.104 163.603 316.238 163.593L324.321 163Z" fill="#4D52B9"/>
<rect x="-0.15" y="0.15" width="9.7" height="65.7" rx="4.85" transform="matrix(-1 0 0 1 337.661 175)" fill="url(#pattern0_492_533)" stroke="#FBFBFB" stroke-width="0.3"/>
<path d="M324.321 168.495H340.961" stroke="#FBFBFB" stroke-width="0.128"/>
<path d="M324.321 163V246.04" stroke="black" stroke-width="0.256"/>
<path d="M305.321 163H321.705C321.846 163 321.961 163.115 321.961 163.256V245.784C321.961 245.925 321.846 246.04 321.705 246.04H297.257C297.115 246.04 297.001 245.925 297.001 245.784V163.848C297.001 163.714 297.104 163.603 297.238 163.593L305.321 163Z" fill="#B94D75"/>
<rect x="-0.15" y="0.15" width="9.7" height="65.7" rx="4.85" transform="matrix(-1 0 0 1 318.661 175)" fill="#B94D75" stroke="#FBFBFB" stroke-width="0.3"/>
<path d="M305.321 168.495H321.961" stroke="#FBFBFB" stroke-width="0.128"/>
<path d="M305.321 163V246.04" stroke="black" stroke-width="0.256"/>
<path d="M294.724 168.033L304.79 173.705C304.909 173.772 304.955 173.919 304.896 174.042L270.187 246.151C270.144 246.24 270.053 246.297 269.954 246.297H241.121C241.072 246.297 241.023 246.283 240.981 246.256L232.194 240.598C232.084 240.527 232.045 240.385 232.102 240.267L267.461 168.145C267.505 168.056 267.595 168 267.693 168H294.597C294.641 168 294.685 168.011 294.724 168.033Z" fill="#E0D36A"/>
<path d="M233.939 241.768H257.196L266.886 246.297H241.045L233.939 241.768Z" fill="#FDE6D5"/>
<path d="M294.019 168L257.842 240.474M257.842 240.474H232.001M257.842 240.474L270.116 246.297" stroke="black" stroke-width="0.387611" stroke-linecap="round"/>
<path d="M277.724 168.033L287.79 173.705C287.909 173.772 287.955 173.919 287.896 174.042L253.187 246.151C253.144 246.24 253.053 246.297 252.954 246.297H224.121C224.072 246.297 224.023 246.283 223.982 246.256L215.195 240.598C215.084 240.527 215.045 240.385 215.102 240.267L250.461 168.145C250.505 168.056 250.595 168 250.693 168H277.597C277.642 168 277.685 168.011 277.724 168.033Z" fill="#E0AB6A"/>
<path d="M216.939 241.768H240.196L249.886 246.297H224.045L216.939 241.768Z" fill="#FDE6D5"/>
<path d="M277.019 168L240.842 240.474M240.842 240.474H215.001M240.842 240.474L253.116 246.297" stroke="black" stroke-width="0.387611" stroke-linecap="round"/>
<path d="M253.698 177.279C257.878 174.769 265.211 172.002 261.1 181.014C256.989 190.027 252.639 186.957 254.986 182.306C257.121 179.127 258.962 180.629 257.711 183.388C257.64 183.546 257.543 183.692 257.435 183.827L251.749 190.884C249.948 192.65 246.663 196.633 247.935 198.442C249.208 200.251 251.57 198.817 253.037 195.91C255.393 189.076 248.932 183.044 246.79 194.217C244.745 204.886 241.857 209.853 240.499 211.206C240.381 211.324 240.265 211.439 240.163 211.572C238.628 213.574 236.077 217.754 237.081 219.953C238.118 222.227 234.277 229.479 232.226 232.821" stroke="#FFE8DA" stroke-width="0.307831" stroke-linecap="round"/>
<path d="M352.641 333H342.257C342.116 333 342.001 333.115 342.001 333.256V400.784C342.001 400.925 342.116 401.04 342.257 401.04H357.705C357.846 401.04 357.961 400.925 357.961 400.784V333.733C357.961 333.601 357.86 333.491 357.729 333.478L352.641 333Z" fill="#4DB980"/>
<path d="M352.641 337.503H342.001" stroke="#FBFBFB" stroke-width="0.128"/>
<rect x="354.001" y="395" width="3" height="12" transform="rotate(90 354.001 395)" fill="#D2CD3E"/>
<rect x="354.001" y="337" width="3" height="12" transform="rotate(90 354.001 337)" fill="#D2CD3E"/>
<path d="M345.577 378.551C346.962 380.399 349.782 382.986 349.99 378.551C350.193 374.211 347.512 374.454 347.398 376.654C347.393 376.751 347.4 376.849 347.419 376.944C347.707 378.437 348.806 378.25 348.939 377.046C348.957 376.884 348.931 376.721 348.891 376.562L347.913 372.716C347.481 371.646 346.875 369.39 347.913 368.923C348.914 368.473 349.673 369.432 349.727 370.807C349.731 370.912 349.723 371.019 349.702 371.122C349.065 374.209 344.722 375.203 346.356 370.382C347.878 365.891 347.773 363.343 347.479 362.424C347.432 362.279 347.375 362.138 347.344 361.988C347.106 360.848 346.943 358.782 347.913 358.127C348.952 357.427 348.865 353.751 348.692 352" stroke="#FFE8DA" stroke-width="0.3" stroke-linecap="round"/>
<path d="M353.001 333V401" stroke="black" stroke-width="0.276513"/>
<path d="M363.641 333H353.257C353.116 333 353.001 333.115 353.001 333.256V400.784C353.001 400.925 353.116 401.04 353.257 401.04H368.705C368.846 401.04 368.961 400.925 368.961 400.784V333.733C368.961 333.601 368.86 333.491 368.729 333.478L363.641 333Z" fill="#4DB980"/>
<path d="M363.641 337.503H353.001" stroke="#FBFBFB" stroke-width="0.128"/>
<rect x="365.001" y="395" width="3" height="12" transform="rotate(90 365.001 395)" fill="#D2CD3E"/>
<rect x="365.001" y="337" width="3" height="12" transform="rotate(90 365.001 337)" fill="#D2CD3E"/>
<path d="M361.425 355.449C360.04 353.601 357.22 351.014 357.012 355.449C356.809 359.789 359.49 359.546 359.604 357.346C359.609 357.249 359.602 357.151 359.583 357.056C359.295 355.563 358.196 355.75 358.063 356.954C358.045 357.116 358.071 357.279 358.111 357.438L359.089 361.284C359.521 362.354 360.127 364.61 359.089 365.077C358.088 365.527 357.329 364.568 357.275 363.193C357.27 363.088 357.279 362.981 357.3 362.878C357.937 359.791 362.28 358.797 360.646 363.618C359.124 368.109 359.229 370.657 359.523 371.576C359.57 371.721 359.627 371.862 359.658 372.012C359.896 373.152 360.059 375.218 359.089 375.873C358.05 376.573 358.137 380.249 358.31 382" stroke="#FFE8DA" stroke-width="0.3" stroke-linecap="round"/>
<path d="M380.974 320.907H363.277C363.125 320.907 363.001 321.031 363.001 321.184V402.763C363.001 402.916 363.125 403.04 363.277 403.04H389.684C389.837 403.04 389.961 402.916 389.961 402.763V321.77C389.961 321.624 389.848 321.503 389.703 321.494L380.974 320.907Z" fill="#4DB1B9"/>
<rect x="366.501" y="332.5" width="10" height="62" rx="2.74038" stroke="#E9E4CA"/>
<path d="M380.974 326.342H363.001" stroke="#FBFBFB" stroke-width="0.138256"/>
<path d="M380.974 320.907V403.04" stroke="black" stroke-width="0.276513"/>
<path d="M398.641 328H382.257C382.116 328 382.001 328.115 382.001 328.256V403.784C382.001 403.925 382.116 404.04 382.257 404.04H406.705C406.846 404.04 406.961 403.925 406.961 403.784V328.798C406.961 328.664 406.857 328.552 406.722 328.543L398.641 328Z" fill="#98B94D"/>
<path d="M387.226 354.426C391.36 351.446 398.244 345.831 392.706 347.216C387.168 348.6 390.976 352.119 391.841 356.734C392.706 361.348 390.687 374.789 389.533 367.405C388.091 358.176 389.245 359.618 388.668 357.311C388.091 355.003 384.053 359.329 385.207 361.925C386.361 364.521 393.052 361.06 393.283 366.828C393.514 372.597 389.918 376.346 388.091 377.5" stroke="#D2CD3E" stroke-width="0.3"/>
<rect x="385.001" y="392" width="10" height="3" rx="1" fill="#FFEACD" fill-opacity="0.88"/>
<rect x="385.001" y="331" width="10" height="3" rx="1" fill="#FFEACD" fill-opacity="0.88"/>
<path d="M398.641 328V404.04" stroke="black" stroke-width="0.256"/>
<path d="M409.641 333H399.257C399.116 333 399.001 333.115 399.001 333.256V400.784C399.001 400.925 399.116 401.04 399.257 401.04H414.705C414.846 401.04 414.961 400.925 414.961 400.784V333.733C414.961 333.601 414.86 333.491 414.729 333.478L409.641 333Z" fill="#B9754D"/>
<path d="M409.641 337.503H399.001" stroke="#FBFBFB" stroke-width="0.128"/>
<rect x="411.001" y="395" width="3" height="12" transform="rotate(90 411.001 395)" fill="#D2CD3E"/>
<rect x="411.001" y="337" width="3" height="12" transform="rotate(90 411.001 337)" fill="#D2CD3E"/>
<path d="M407.425 355.449C406.04 353.601 403.22 351.014 403.012 355.449C402.809 359.789 405.49 359.546 405.604 357.346C405.609 357.249 405.602 357.151 405.583 357.056C405.295 355.563 404.196 355.75 404.063 356.954C404.045 357.116 404.071 357.279 404.111 357.438L405.089 361.284C405.521 362.354 406.127 364.61 405.089 365.077C404.088 365.527 403.329 364.568 403.275 363.193C403.27 363.088 403.279 362.981 403.3 362.878C403.937 359.791 408.28 358.797 406.646 363.618C405.124 368.109 405.229 370.657 405.523 371.576C405.57 371.721 405.627 371.862 405.658 372.012C405.896 373.152 406.059 375.218 405.089 375.873C404.05 376.573 404.137 380.249 404.31 382" stroke="#FFE8DA" stroke-width="0.3" stroke-linecap="round"/>
<path d="M427.641 318H411.257C411.116 318 411.001 318.115 411.001 318.256V400.784C411.001 400.925 411.116 401.04 411.257 401.04H435.705C435.846 401.04 435.961 400.925 435.961 400.784V318.848C435.961 318.714 435.857 318.603 435.724 318.593L427.641 318Z" fill="#A34DB9"/>
<rect x="414.151" y="330.15" width="9.7" height="65.7" fill="url(#pattern1_492_533)" stroke="#FBFBFB" stroke-width="0.3"/>
<path d="M427.641 323.495H411.001" stroke="#FBFBFB" stroke-width="0.128"/>
<path d="M427.641 318V401.04" stroke="black" stroke-width="0.256"/>
<path d="M440.641 332H430.257C430.116 332 430.001 332.115 430.001 332.256V399.784C430.001 399.925 430.116 400.04 430.257 400.04H445.705C445.846 400.04 445.961 399.925 445.961 399.784V332.733C445.961 332.601 445.86 332.491 445.729 332.478L440.641 332Z" fill="#4DB980"/>
<rect x="440.001" y="336" width="3" height="10" transform="rotate(90 440.001 336)" fill="#D2CD3E"/>
<rect x="440.001" y="394" width="3" height="10" transform="rotate(90 440.001 394)" fill="#D2CD3E"/>
<path d="M440.001 332V404.04" stroke="black" stroke-width="0.249176"/>
<path d="M438.425 354.449C437.04 352.601 434.22 350.014 434.012 354.449C433.809 358.789 436.49 358.546 436.604 356.346C436.609 356.249 436.602 356.151 436.583 356.056C436.295 354.563 435.196 354.75 435.063 355.954C435.045 356.116 435.071 356.279 435.111 356.438L436.089 360.284C436.521 361.354 437.127 363.61 436.089 364.077C435.088 364.527 434.329 363.568 434.275 362.193C434.27 362.088 434.279 361.981 434.3 361.878C434.937 358.791 439.28 357.797 437.646 362.618C436.124 367.109 436.229 369.657 436.523 370.576C436.57 370.721 436.627 370.862 436.658 371.012C436.896 372.152 437.059 374.218 436.089 374.873C435.05 375.573 435.137 379.249 435.31 381" stroke="#FFE8DA" stroke-width="0.3" stroke-linecap="round"/>
<rect x="291.001" y="397" width="389" height="19" rx="2.56" fill="#AE563E"/>
<path d="M447.322 340.717L440.151 344.758C440.067 344.805 440.034 344.91 440.076 344.998L464.8 396.363C464.831 396.427 464.895 396.467 464.966 396.467H485.504C485.54 396.467 485.574 396.457 485.604 396.438L491.863 392.407C491.942 392.357 491.97 392.256 491.929 392.172L466.742 340.797C466.711 340.734 466.647 340.694 466.576 340.694H447.412C447.38 340.694 447.349 340.702 447.322 340.717Z" fill="#6A4931"/>
<path d="M490.62 393.241H474.054L467.151 396.467H485.558L490.62 393.241Z" fill="#FDE6D5"/>
<path d="M447.824 340.694L473.594 392.319M473.594 392.319H492.001M473.594 392.319L464.851 396.467" stroke="black" stroke-width="0.276106" stroke-linecap="round"/>
<path d="M447.322 340.717L440.151 344.758C440.067 344.805 440.034 344.91 440.076 344.998L464.8 396.363C464.831 396.427 464.895 396.467 464.966 396.467H485.504C485.54 396.467 485.574 396.457 485.604 396.438L491.863 392.407C491.942 392.357 491.97 392.256 491.929 392.172L466.742 340.797C466.711 340.734 466.647 340.694 466.576 340.694H447.412C447.38 340.694 447.349 340.702 447.322 340.717Z" fill="#6A4931"/>
<path d="M490.62 393.241H474.054L467.151 396.467H485.558L490.62 393.241Z" fill="#FDE6D5"/>
<path d="M447.824 340.694L473.594 392.319M473.594 392.319H492.001M473.594 392.319L464.851 396.467" stroke="black" stroke-width="0.276106" stroke-linecap="round"/>
<path d="M492.641 313H476.257C476.116 313 476.001 313.115 476.001 313.256V395.784C476.001 395.925 476.116 396.04 476.257 396.04H500.705C500.846 396.04 500.961 395.925 500.961 395.784V313.848C500.961 313.714 500.857 313.603 500.724 313.593L492.641 313Z" fill="#B13333"/>
<rect x="479.151" y="325.15" width="9.7" height="65.7" stroke="#FBFBFB" stroke-width="0.3"/>
<path d="M492.641 318.495H476.001" stroke="#FBFBFB" stroke-width="0.128"/>
<path d="M492.641 313V396.04" stroke="black" stroke-width="0.256"/>
<path d="M509.641 321H493.257C493.116 321 493.001 321.115 493.001 321.256V396.784C493.001 396.925 493.116 397.04 493.257 397.04H517.705C517.846 397.04 517.961 396.925 517.961 396.784V321.798C517.961 321.664 517.857 321.552 517.722 321.543L509.641 321Z" fill="#4DB1B9"/>
<rect x="496.001" y="333" width="10" height="58" rx="3" fill="#FFEACD" fill-opacity="0.88"/>
<path d="M509.641 326.032H493.001" stroke="#FBFBFB" stroke-width="0.128"/>
<path d="M509.641 321V397.04" stroke="black" stroke-width="0.256"/>
<path d="M526.401 310H510.017C509.876 310 509.761 310.115 509.761 310.256V396.784C509.761 396.925 509.876 397.04 510.017 397.04H534.465C534.606 397.04 534.721 396.925 534.721 396.784V310.877C534.721 310.743 534.618 310.632 534.485 310.622L526.401 310Z" fill="#92BBC1"/>
<path d="M526.401 315.76H509.761" stroke="black" stroke-width="0.128"/>
<path d="M526.401 310V397.04" stroke="black" stroke-width="0.256"/>
<rect x="511.041" y="324.048" width="9.91057" height="9.91057" rx="0.256" transform="rotate(-45 511.041 324.048)" fill="#568E9E"/>
<rect x="511.041" y="380.368" width="9.91057" height="9.91057" rx="0.256" transform="rotate(-45 511.041 380.368)" fill="#568E9E"/>
<rect x="511.041" y="366.288" width="9.91057" height="9.91057" rx="0.256" transform="rotate(-45 511.041 366.288)" fill="#568E9E"/>
<rect x="511.041" y="352.208" width="9.91057" height="9.91057" rx="0.256" transform="rotate(-45 511.041 352.208)" fill="#568E9E"/>
<rect x="511.041" y="338.128" width="9.91057" height="9.91057" rx="0.256" transform="rotate(-45 511.041 338.128)" fill="#568E9E"/>
<path d="M537.494 325.36H526.657C526.516 325.36 526.401 325.475 526.401 325.616V396.784C526.401 396.925 526.516 397.04 526.657 397.04H542.785C542.926 397.04 543.041 396.925 543.041 396.784V326.12C543.041 325.988 542.941 325.878 542.809 325.865L537.494 325.36Z" fill="#FFDDAF"/>
<rect x="528.601" y="385" width="7" height="7" rx="3" fill="#FCECD8" fill-opacity="0.88"/>
<path d="M537.901 330.103H526.401" stroke="black" stroke-width="0.128"/>
<path d="M551.567 375.75H649.196C649.383 375.75 649.556 375.856 649.639 376.024C653.735 384.262 651.735 392.914 649.639 396.989C649.555 397.152 649.387 397.25 649.203 397.25H551.586C551.279 397.25 551.044 396.976 551.088 396.672C552.117 389.493 551.546 380.499 551.068 376.309C551.034 376.01 551.267 375.75 551.567 375.75Z" fill="#BFDF91"/>
<path d="M566.877 377.25H551.585C551.415 377.25 551.279 377.394 551.285 377.565C551.646 386.803 551.485 392.422 551.327 394.421C551.313 394.598 551.452 394.75 551.63 394.75H566.861C566.95 394.75 567.036 394.709 567.092 394.641C573.298 387.162 569.733 380.057 567.086 377.337C567.031 377.28 566.956 377.25 566.877 377.25Z" fill="#FFE8DA"/>
<path d="M633.39 391.25C637.15 388.433 642.413 382.695 633.39 382.272C624.559 381.859 625.054 387.313 629.531 387.546C629.727 387.556 629.927 387.541 630.12 387.504C633.158 386.916 632.776 384.681 630.329 384.411C629.998 384.375 629.666 384.426 629.344 384.508L621.518 386.497C619.342 387.377 614.751 388.609 613.801 386.497C612.886 384.462 614.837 382.917 617.635 382.807C617.849 382.798 618.065 382.816 618.275 382.859C624.557 384.155 626.578 392.99 616.769 389.666C607.633 386.569 602.45 386.782 600.579 387.381C600.284 387.476 599.997 387.592 599.693 387.656C597.374 388.139 593.17 388.472 591.838 386.497C590.413 384.385 582.934 384.561 579.372 384.913" stroke="#FFE8DA" stroke-width="0.5" stroke-linecap="round"/>
<path d="M551.646 365.35H649.236C649.402 365.35 649.558 365.432 649.647 365.572C651.792 368.926 651.358 372.704 649.645 375.571C649.557 375.718 649.397 375.805 649.226 375.805H551.689C551.349 375.805 551.108 375.473 551.193 375.145C552.026 371.917 551.586 368.055 551.147 365.978C551.079 365.658 551.319 365.35 551.646 365.35Z" fill="#91ACDF"/>
<path d="M564.36 366.35H551.695C551.521 366.35 551.383 366.499 551.395 366.673C551.659 370.511 551.562 372.952 551.443 373.995C551.422 374.181 551.565 374.35 551.753 374.35H564.347C564.406 374.35 564.465 374.332 564.514 374.299C569.671 370.878 566.702 367.629 564.503 366.387C564.459 366.362 564.41 366.35 564.36 366.35Z" fill="#FFE8DA"/>
<path d="M643.872 365.37C644.706 367.037 645.872 371.47 643.872 375.87" stroke="#FFE8DA" stroke-width="0.13"/>
<path d="M640.872 365.37C641.706 367.037 642.872 371.47 640.872 375.87" stroke="#FFE8DA" stroke-width="0.13"/>
<path d="M574.872 365.37C575.706 367.037 576.872 371.47 574.872 375.87" stroke="#FFE8DA" stroke-width="0.13"/>
<path d="M571.872 365.37C572.706 367.037 573.872 371.47 571.872 375.87" stroke="#FFE8DA" stroke-width="0.13"/>
<path d="M640.857 357H562.86C562.728 357 562.603 357.066 562.531 357.178C560.818 359.858 561.164 362.878 562.533 365.169C562.603 365.286 562.731 365.356 562.868 365.356H640.822C641.094 365.356 641.287 365.091 641.219 364.828C640.553 362.248 640.905 359.162 641.256 357.502C641.31 357.246 641.118 357 640.857 357Z" fill="#91C1DF"/>
<path d="M630.695 357.799H640.818C640.957 357.799 641.067 357.918 641.057 358.057C640.846 361.125 640.924 363.076 641.019 363.909C641.036 364.058 640.921 364.193 640.772 364.193H630.705C630.659 364.193 630.611 364.178 630.572 364.153C626.451 361.418 628.823 358.821 630.581 357.829C630.616 357.809 630.655 357.799 630.695 357.799Z" fill="#FFE8DA"/>
<path d="M616.372 362.289C611.972 360.289 609.206 361.455 608.372 362.289C605.872 362.622 601.372 362.789 603.372 360.789C605.372 358.789 606.206 359.955 606.372 360.789C606.539 362.455 606.072 365.389 602.872 363.789C598.872 361.789 602.372 357.789 597.872 359.289C594.272 360.489 594.872 363.289 597.872 363.289C600.872 362.789 601.272 359.289 594.872 359.289C588.472 359.289 587.539 360.955 587.872 361.789C589.206 362.955 592.072 364.989 592.872 363.789C593.872 362.289 593.872 357.789 590.872 358.289C587.872 358.789 586.372 360.789 583.872 360.789C581.372 360.789 581.372 358.289 579.872 359.289" stroke="black" stroke-width="0.15" stroke-linecap="round"/>
<defs>
<pattern id="pattern0_492_533" patternUnits="userSpaceOnUse" patternTransform="matrix(5.5 0 0 9.53333 0 0)" preserveAspectRatio="none" viewBox="0 0 55 95.3333" width="1" height="1">
<use xlink:href="#pattern0_492_533_inner" transform="translate(-55 0)"/>
<g id="pattern0_492_533_inner">
<path fill-rule="evenodd" clip-rule="evenodd" d="M11.1099 23.8333L0 18.1704L8.18863 5.66299L19.305 11.3162L19.3113 0H35.6887L35.695 11.3162L46.8113 5.66299L55 18.1704L43.89 23.8333L55 29.4963L46.8113 42.0037L35.695 36.3505L35.6887 47.6667H19.3113L19.305 36.3505L8.18863 42.0037L0 29.4963L11.1099 23.8333Z" fill="white"/>
</g>
<use xlink:href="#pattern0_492_533_inner" transform="translate(-27.5 47.6667)"/>
<use xlink:href="#pattern0_492_533_inner" transform="translate(27.5 47.6667)"/>
</pattern><pattern id="pattern1_492_533" patternUnits="userSpaceOnUse" patternTransform="matrix(2.65424 0 0 8.7 413.956 329.955)" preserveAspectRatio="none" viewBox="-0.150024 -0.150009 8.84746 29" width="1" height="1">
<use xlink:href="#pattern1_492_533_inner" transform="translate(-4.42373 -43.5)"/>
<use xlink:href="#pattern1_492_533_inner" transform="translate(0 -58)"/>
<use xlink:href="#pattern1_492_533_inner" transform="translate(4.42373 -43.5)"/>
<use xlink:href="#pattern1_492_533_inner" transform="translate(-4.42373 -14.5)"/>
<use xlink:href="#pattern1_492_533_inner" transform="translate(0 -29)"/>
<use xlink:href="#pattern1_492_533_inner" transform="translate(4.42373 -14.5)"/>
<use xlink:href="#pattern1_492_533_inner" transform="translate(-4.42373 14.5)"/>
<g id="pattern1_492_533_inner">
<path d="M4.42373 2.44875C3.03934 0.600866 0.21865 -1.98617 0.0109922 2.44875C-0.19225 6.78937 2.48883 6.54631 2.60297 4.3456C2.60797 4.2492 2.60063 4.15079 2.5823 4.05602C2.29354 2.56271 1.19467 2.75045 1.06232 3.95358C1.04446 4.11593 1.06961 4.27949 1.10985 4.43779L2.08756 8.28422C2.52018 9.35405 3.12585 11.6104 2.08756 12.0772C1.08718 12.527 0.327758 11.5684 0.273643 10.193C0.269509 10.0879 0.278069 9.98146 0.299313 9.87848C0.936337 6.79057 5.27899 5.79711 3.645 10.6184C2.12309 15.109 2.2278 17.6569 2.52218 18.5762C2.56866 18.7213 2.62589 18.8624 2.65697 19.0116C2.89455 20.1519 3.05837 22.2181 2.08756 22.8728C1.04927 23.573 1.1358 27.2494 1.30885 29" stroke="#FFE8DA" stroke-width="0.3" stroke-linecap="round"/>
</g>
<use xlink:href="#pattern1_492_533_inner" transform="translate(4.42373 14.5)"/>
</pattern></defs>
</svg>
