<svg width="16" height="20" viewBox="0 0 16 20" fill="none" xmlns="http://www.w3.org/2000/svg">
<path d="M2 0.150391H14C14.5099 0.150391 14.9425 0.330223 15.3066 0.694336C15.6708 1.05845 15.8502 1.49092 15.8496 2V18C15.8496 18.5099 15.6701 18.9426 15.3066 19.3066C14.9433 19.6706 14.5105 19.8502 14 19.8496H2C1.49006 19.8496 1.05774 19.67 0.694336 19.3066C0.330981 18.9433 0.151051 18.5106 0.150391 18V2C0.150391 1.49014 0.330297 1.05776 0.694336 0.694336C1.05846 0.330876 1.49083 0.151051 2 0.150391ZM6.84961 9.26465L7.07715 9.12891L9.5 7.6748L11.9229 9.12891L12.1504 9.26465V1.84961H6.84961V9.26465Z" fill="url(#paint0_linear_129_83)" stroke="#444444" stroke-width="0.3"/>
<defs>
<linearGradient id="paint0_linear_129_83" x1="15.4088" y1="18.873" x2="7.87627" y2="-3.18397" gradientUnits="userSpaceOnUse">
<stop stop-color="#FFDDAF"/>
<stop offset="0.505774" stop-color="#D4F6FF"/>
<stop offset="1" stop-color="#C7E7FF"/>
</linearGradient>
</defs>
</svg>
