<svg width="717" height="274" viewBox="0 0 717 274" fill="none" xmlns="http://www.w3.org/2000/svg">
<path d="M179.024 59.6012H146.451C146.007 59.6012 145.647 59.9607 145.647 60.4043V272.233C145.647 272.677 146.007 273.036 146.451 273.036H194.909C195.353 273.036 195.712 272.677 195.712 272.233V61.9016C195.712 61.4873 195.397 61.1409 194.985 61.1021L179.024 59.6012Z" fill="#4DB980"/>
<path d="M179.024 73.7257H145.647" stroke="#FBFBFB" stroke-width="0.401524"/>
<rect x="183.29" y="254.089" width="9.41071" height="37.6428" transform="rotate(90 183.29 254.089)" fill="#D2CD3E"/>
<rect x="183.29" y="72.1488" width="9.41071" height="37.6428" transform="rotate(90 183.29 72.1488)" fill="#D2CD3E"/>
<path d="M172.072 130.021C167.729 124.224 158.881 116.109 158.23 130.021C157.592 143.637 166.002 142.874 166.36 135.971C166.376 135.669 166.353 135.36 166.296 135.063C165.39 130.378 161.943 130.967 161.527 134.741C161.471 135.251 161.55 135.764 161.677 136.26L164.744 148.326C166.101 151.682 168.001 158.76 164.744 160.224C161.605 161.635 159.223 158.628 159.053 154.314C159.04 153.984 159.067 153.65 159.134 153.327C161.132 143.641 174.755 140.524 169.629 155.648C164.855 169.735 165.183 177.727 166.107 180.611C166.253 181.066 166.432 181.509 166.53 181.977C167.275 185.554 167.789 192.035 164.744 194.089C161.487 196.286 161.758 207.818 162.301 213.309" stroke="#FFE8DA" stroke-width="0.941071" stroke-linecap="round"/>
<path d="M232.352 12.5476H180.956C180.513 12.5476 180.153 12.9071 180.153 13.3506V272.233C180.153 272.677 180.513 273.036 180.956 273.036H257.648C258.091 273.036 258.451 272.677 258.451 272.233V15.2092C258.451 14.7885 258.126 14.4391 257.706 14.4083L232.352 12.5476Z" fill="#4D70B9"/>
<rect x="190.035" y="50.661" width="30.428" height="206.095" stroke="#FBFBFB" stroke-width="0.941071"/>
<path d="M232.352 29.786H180.153" stroke="#FBFBFB" stroke-width="0.401524"/>
<path d="M232.352 12.5476V273.036" stroke="black" stroke-width="0.803047"/>
<path d="M285.679 34.506H234.284C233.84 34.506 233.481 34.8655 233.481 35.309V272.233C233.481 272.677 233.84 273.036 234.284 273.036H310.975C311.418 273.036 311.778 272.677 311.778 272.233V37.0108C311.778 36.5882 311.45 36.2379 311.029 36.2095L285.679 34.506Z" fill="#4DB1B9"/>
<rect x="242.891" y="72.1488" width="31.369" height="181.94" rx="9.41071" fill="#FFEACD" fill-opacity="0.88"/>
<path d="M285.679 50.2911H233.481" stroke="#FBFBFB" stroke-width="0.401524"/>
<path d="M285.679 34.506V273.036" stroke="black" stroke-width="0.803047"/>
<path d="M338.253 0H286.858C286.415 0 286.055 0.359524 286.055 0.803035V272.233C286.055 272.677 286.415 273.036 286.858 273.036H363.549C363.993 273.036 364.352 272.677 364.352 272.233V2.75127C364.352 2.33164 364.029 1.98277 363.611 1.95058L338.253 0Z" fill="#4D50B9"/>
<path d="M338.253 18.0686H286.055" stroke="black" stroke-width="0.401524"/>
<path d="M338.253 0V273.036" stroke="black" stroke-width="0.803047"/>
<rect x="290.071" y="44.0668" width="31.0885" height="31.0885" rx="0.803047" transform="rotate(-45 290.071 44.0668)" fill="#2F2C83"/>
<rect x="290.071" y="220.737" width="31.0885" height="31.0885" rx="0.803047" transform="rotate(-45 290.071 220.737)" fill="#2F2C83"/>
<rect x="290.071" y="176.57" width="31.0885" height="31.0885" rx="0.803047" transform="rotate(-45 290.071 176.57)" fill="#2F2C83"/>
<rect x="290.071" y="132.402" width="31.0885" height="31.0885" rx="0.803047" transform="rotate(-45 290.071 132.402)" fill="#2F2C83"/>
<rect x="290.071" y="88.2343" width="31.0885" height="31.0885" rx="0.803047" transform="rotate(-45 290.071 88.2343)" fill="#2F2C83"/>
<path d="M373.052 48.1829H339.056C338.613 48.1829 338.253 48.5424 338.253 48.9859V272.233C338.253 272.677 338.613 273.036 339.056 273.036H389.648C390.092 273.036 390.451 272.677 390.451 272.233V50.5666C390.451 50.1525 390.137 49.8063 389.724 49.7671L373.052 48.1829Z" fill="#FFDDAF"/>
<rect x="345.154" y="235.268" width="21.9583" height="21.9583" rx="9.41071" fill="#FCECD8" fill-opacity="0.88"/>
<path d="M374.328 63.0629H338.253" stroke="black" stroke-width="0.401524"/>
<path d="M409.189 24.0916H375.194C374.75 24.0916 374.391 24.4511 374.391 24.8946V272.233C374.391 272.677 374.75 273.036 375.194 273.036H425.786C426.229 273.036 426.589 272.677 426.589 272.233V26.645C426.589 26.234 426.278 25.8894 425.87 25.8464L409.189 24.0916Z" fill="#FFD1DC"/>
<path d="M402.874 260.363L377.778 260.363" stroke="#FEEDD6" stroke-width="0.627381" stroke-linecap="round"/>
<path d="M406.512 273.036V24.0916" stroke="black" stroke-width="0.941071"/>
<path d="M402.874 37.6428L377.778 37.6428" stroke="#FEEDD6" stroke-width="0.627381" stroke-linecap="round"/>
<rect x="387.189" y="47.0536" width="3.1369" height="12.5476" rx="0.941071" fill="#FEEDD6"/>
<path d="M441.311 24.0916H407.315C406.872 24.0916 406.512 24.4511 406.512 24.8946V272.233C406.512 272.677 406.872 273.036 407.315 273.036H457.907C458.351 273.036 458.71 272.677 458.71 272.233V26.645C458.71 26.234 458.4 25.8894 457.991 25.8464L441.311 24.0916Z" fill="#FFD1DC"/>
<path d="M434.243 260.363L409.147 260.363" stroke="#FEEDD6" stroke-width="0.627381" stroke-linecap="round"/>
<path d="M438.634 273.036V24.0916" stroke="black" stroke-width="0.941071"/>
<path d="M434.243 37.6428L409.147 37.6428" stroke="#FEEDD6" stroke-width="0.627381" stroke-linecap="round"/>
<rect x="418.558" y="47.0536" width="3.1369" height="12.5476" rx="0.941071" fill="#FEEDD6"/>
<rect x="424.832" y="47.0536" width="3.1369" height="12.5476" rx="0.941071" fill="#FEEDD6"/>
<path d="M473.433 24.0916H439.438C438.994 24.0916 438.635 24.4511 438.635 24.8946V272.233C438.635 272.677 438.994 273.036 439.438 273.036H490.03C490.473 273.036 490.833 272.677 490.833 272.233V26.645C490.833 26.234 490.522 25.8894 490.114 25.8464L473.433 24.0916Z" fill="#FFD1DC"/>
<rect x="453.064" y="47.0536" width="3.1369" height="12.5476" rx="0.941071" fill="#FEEDD6"/>
<rect x="446.79" y="47.0536" width="3.1369" height="12.5476" rx="0.941071" fill="#FEEDD6"/>
<rect x="459.338" y="47.0536" width="3.1369" height="12.5476" rx="0.941071" fill="#FEEDD6"/>
<path d="M465.612 37.6428L440.516 37.6428" stroke="#FEEDD6" stroke-width="0.627381" stroke-linecap="round"/>
<path d="M465.612 260.363L440.516 260.363" stroke="#FEEDD6" stroke-width="0.627381" stroke-linecap="round"/>
<path d="M539.015 0H475.575C475.131 0 474.772 0.359524 474.772 0.803035V272.233C474.772 272.677 475.131 273.036 475.575 273.036H570.334C570.778 273.036 571.137 272.677 571.137 272.233V2.76204C571.137 2.33798 570.808 1.98701 570.384 1.96056L539.015 0Z" fill="#444444"/>
<path d="M539.015 0V273.036" stroke="black" stroke-width="0.803047"/>
<path d="M496.981 0H518.939V272.911H496.981V0Z" fill="#8F252C" fill-opacity="0.6"/>
<path d="M539.015 18.0686H474.772" stroke="black" stroke-width="0.401524"/>
<path d="M315.107 205.817H8.85545C8.26777 205.817 7.72571 206.15 7.46409 206.676C-5.3842 232.519 0.890803 259.659 7.46636 272.442C7.72966 272.954 8.25694 273.26 8.83255 273.26H315.048C316.012 273.26 316.747 272.402 316.611 271.448C313.381 248.928 315.175 220.715 316.674 207.569C316.781 206.632 316.05 205.817 315.107 205.817Z" fill="#DFBE91"/>
<path d="M267.083 210.522H315.051C315.585 210.522 316.012 210.976 315.991 211.51C314.859 240.489 315.365 258.115 315.86 264.388C315.904 264.943 315.468 265.418 314.911 265.418H267.131C266.853 265.418 266.584 265.29 266.407 265.076C246.939 241.615 258.122 219.329 266.425 210.794C266.599 210.615 266.833 210.522 267.083 210.522Z" fill="#FFE8DA"/>
<path d="M58.4361 254.439C46.6429 245.604 30.1325 227.602 58.4361 226.277C86.1379 224.98 84.5867 242.091 70.5418 242.819C69.9265 242.851 69.2985 242.804 68.6936 242.687C59.1634 240.844 60.3615 233.831 68.0399 232.987C69.076 232.873 70.1198 233.033 71.1301 233.29L95.6779 239.53C102.506 242.291 116.906 246.156 119.885 239.53C122.756 233.145 116.637 228.299 107.859 227.953C107.189 227.927 106.51 227.982 105.852 228.117C86.1455 232.183 79.8052 259.897 110.575 249.469C139.233 239.756 155.494 240.425 161.361 242.303C162.287 242.6 163.188 242.965 164.14 243.164C171.417 244.68 184.603 245.725 188.782 239.53C193.251 232.903 216.713 233.456 227.886 234.56" stroke="#FFE8DA" stroke-width="1.56845" stroke-linecap="round"/>
<path d="M314.86 173.193H8.7299C8.20962 173.193 7.71952 173.452 7.43927 173.89C0.712908 184.411 2.07142 196.263 7.44566 205.255C7.72142 205.716 8.22378 205.99 8.7613 205.99H314.725C315.79 205.99 316.548 204.949 316.281 203.918C313.667 193.792 315.047 181.678 316.425 175.162C316.637 174.16 315.885 173.193 314.86 173.193Z" fill="#DFD591"/>
<path d="M274.978 176.33H314.707C315.254 176.33 315.685 176.797 315.647 177.343C314.818 189.384 315.122 197.04 315.496 200.311C315.562 200.895 315.113 201.425 314.526 201.425H275.017C274.834 201.425 274.648 201.368 274.495 201.266C258.318 190.535 267.631 180.341 274.528 176.446C274.666 176.368 274.82 176.33 274.978 176.33Z" fill="#FFE8DA"/>
<path d="M25.5552 173.256C22.9411 178.484 19.2816 192.391 25.5554 206.193" stroke="#FFE8DA" stroke-width="0.407798"/>
<path d="M34.966 173.256C32.3519 178.484 28.6924 192.391 34.9662 206.193" stroke="#FFE8DA" stroke-width="0.407798"/>
<path d="M242.002 173.256C239.388 178.484 235.728 192.391 242.002 206.193" stroke="#FFE8DA" stroke-width="0.407798"/>
<path d="M251.412 173.256C248.798 178.484 245.139 192.391 251.413 206.193" stroke="#FFE8DA" stroke-width="0.407798"/>
<path d="M35.0135 147H279.682C280.098 147 280.49 147.207 280.714 147.557C286.09 155.966 285.004 165.438 280.709 172.625C280.488 172.993 280.087 173.212 279.657 173.212H35.122C34.2704 173.212 33.6651 172.381 33.8779 171.556C35.9673 163.463 34.8644 153.781 33.7628 148.574C33.5933 147.773 34.1945 147 35.0135 147Z" fill="#B691DF"/>
<path d="M66.8893 149.507H35.1369C34.7001 149.507 34.3554 149.881 34.3854 150.317C35.0482 159.94 34.805 166.059 34.5066 168.674C34.4533 169.14 34.8125 169.564 35.2818 169.564H66.8586C67.0048 169.564 67.1535 169.518 67.2753 169.437C80.2049 160.86 72.7616 152.713 67.2491 149.6C67.1387 149.538 67.0161 149.507 66.8893 149.507Z" fill="#FFE8DA"/>
<path d="M111.82 163.59C125.622 157.316 134.301 160.976 136.915 163.59C144.758 164.635 158.874 165.158 152.6 158.884C146.326 152.611 143.712 156.27 143.189 158.884C142.666 164.113 144.13 173.314 154.168 168.295C166.716 162.021 155.737 149.474 169.853 154.179C181.146 157.943 179.264 166.727 169.853 166.727C160.442 165.158 159.187 154.179 179.264 154.179C199.34 154.179 202.267 159.407 201.222 162.021C197.039 165.681 188.047 172.059 185.537 168.295C182.4 163.59 182.4 149.474 191.811 151.042C201.222 152.611 205.927 158.884 213.769 158.884C221.612 158.884 221.612 151.042 226.317 154.179" stroke="black" stroke-width="0.470536" stroke-linecap="round"/>
<path d="M563.654 82.8951L539.214 96.665C538.926 96.8274 538.813 97.1856 538.957 97.4837L623.227 272.555C623.332 272.773 623.551 272.911 623.792 272.911H693.794C693.914 272.911 694.032 272.876 694.134 272.811L715.467 259.074C715.735 258.901 715.831 258.556 715.691 258.27L629.844 83.1655C629.739 82.9506 629.52 82.8143 629.281 82.8143H563.961C563.854 82.8143 563.748 82.8422 563.654 82.8951Z" fill="#6A3135"/>
<path d="M711.231 261.913H654.767L631.24 272.911H693.979L711.231 261.913Z" fill="#FDE6D5"/>
<path d="M565.365 82.8143L653.199 258.771M653.199 258.771H715.937M653.199 258.771L623.398 272.911" stroke="black" stroke-width="0.941071" stroke-linecap="round"/>
<path d="M620.615 115.351C620.748 114.936 621.253 114.779 621.597 115.046L642.088 130.919C642.511 131.247 642.357 131.919 641.833 132.029L614.415 137.802C613.944 137.901 613.542 137.455 613.689 136.996L620.615 115.351Z" fill="#55292C"/>
<path d="M672.899 229.746C672.774 230.151 672.292 230.319 671.943 230.079L648.964 214.28C648.482 213.949 648.675 213.197 649.257 213.139L677.981 210.267C678.428 210.222 678.775 210.647 678.643 211.075L672.899 229.746Z" fill="#55292C"/>
</svg>
