<svg width="389" height="115" viewBox="0 0 389 115" fill="none" xmlns="http://www.w3.org/2000/svg" xmlns:xlink="http://www.w3.org/1999/xlink">
<rect width="389" height="19" rx="2.56" transform="matrix(-1 0 0 1 389 95.101)" fill="#AE563E"/>
<path d="M17.5798 63.101H192.233C192.407 63.101 192.571 63.1936 192.66 63.3431C200.158 75.8632 196.446 89.0552 192.657 95.1242C192.567 95.2684 192.411 95.351 192.241 95.351H17.6026C17.2895 95.351 17.0532 95.0684 17.1074 94.76C19.0339 83.7941 17.9483 69.8912 17.0825 63.6742C17.0404 63.3717 17.2744 63.101 17.5798 63.101Z" fill="#9192DF"/>
<path d="M45.4004 65.351H17.7992C17.628 65.351 17.4916 65.4973 17.4996 65.6684C18.1641 79.8746 17.8525 88.4081 17.5657 91.2689C17.5477 91.4477 17.6876 91.601 17.8673 91.601H45.3856C45.4651 91.601 45.5435 91.5673 45.5996 91.5109C56.8141 80.2089 50.3243 69.4641 45.5914 65.4201C45.5377 65.3742 45.4711 65.351 45.4004 65.351Z" fill="#FFE8DA"/>
<path d="M163.806 86.351C170.505 82.1262 179.884 73.5182 163.806 72.8845C147.729 72.2508 148.998 80.8059 157.46 80.8059C163.633 80.0354 162.801 76.2672 157.884 76.0617C157.603 76.05 157.321 76.0827 157.046 76.1415L142.652 79.2216C138.774 80.5419 130.594 82.3902 128.902 79.2216C127.209 76.053 131.017 73.6766 136.306 73.6766C147.941 75.2609 151.96 89.0442 134.19 83.9745C117.223 79.1337 107.906 79.6855 104.951 80.6647C104.694 80.7498 104.441 80.834 104.175 80.8843C100.147 81.6461 92.2205 82.2855 89.7659 79.2216C87.2273 76.053 73.9 76.3171 67.5537 76.8452" stroke="#FFE8DA" stroke-width="0.5" stroke-linecap="round"/>
<path d="M23.8228 49.7989H148.334C148.546 49.7989 148.745 49.904 148.859 50.0823C151.595 54.3614 151.042 59.1819 148.856 62.8391C148.744 63.0268 148.54 63.1381 148.321 63.1381H23.878C23.4446 63.1381 23.1365 62.715 23.2449 62.2954C24.3081 58.1771 23.7469 53.2499 23.1863 50.5998C23.1 50.1921 23.406 49.7989 23.8228 49.7989Z" fill="#D591DF"/>
<path d="M40.0439 51.0748H23.8852C23.6628 51.0748 23.4875 51.2648 23.5027 51.4866C23.84 56.384 23.7163 59.498 23.5644 60.8287C23.5373 61.0659 23.7201 61.2816 23.9589 61.2816H40.0282C40.1026 61.2816 40.1783 61.2582 40.2403 61.2171C46.8201 56.8521 43.0323 52.7063 40.2269 51.122C40.1708 51.0903 40.1084 51.0748 40.0439 51.0748Z" fill="#FFE8DA"/>
<path d="M141.491 49.8244C142.554 51.9508 144.042 57.6071 141.491 63.2209" stroke="#FFE8DA" stroke-width="0.165862"/>
<path d="M137.663 49.8244C138.726 51.9508 140.215 57.6071 137.663 63.2209" stroke="#FFE8DA" stroke-width="0.165862"/>
<path d="M53.4564 49.8244C54.5196 51.9508 56.008 57.6071 53.4563 63.2209" stroke="#FFE8DA" stroke-width="0.165862"/>
<path d="M49.6288 49.8244C50.692 51.9508 52.1804 57.6071 49.6287 63.2209" stroke="#FFE8DA" stroke-width="0.165862"/>
<path d="M103.525 37.7009H25.5324C25.3762 37.7009 25.2336 37.7921 25.1713 37.9354C23.4379 41.9194 23.7906 46.4143 25.1746 49.8141C25.2348 49.9622 25.3797 50.057 25.5396 50.057H103.503C103.759 50.057 103.948 49.8213 103.901 49.5705C103.135 45.5541 103.552 40.6054 103.924 38.1698C103.961 37.9246 103.773 37.7009 103.525 37.7009Z" fill="#91BDDF"/>
<path d="M93.347 38.8828H103.452C103.589 38.8828 103.698 38.9991 103.691 39.136C103.463 43.9451 103.558 46.9229 103.659 48.0693C103.672 48.2127 103.56 48.3374 103.416 48.3374H93.3587C93.2966 48.3374 93.2352 48.3118 93.1909 48.2682C89.0912 44.2373 91.4424 40.4097 93.1972 38.9362C93.2394 38.9008 93.2919 38.8828 93.347 38.8828Z" fill="#FFE8DA"/>
<path d="M42.5001 45.5211C46.9001 42.5637 49.6667 44.2889 50.5001 45.5211C53.0001 46.014 57.5001 46.2605 55.5001 43.3031C53.5001 40.3457 52.6667 42.0709 52.5001 43.3031C52.3334 45.7676 52.8001 50.1051 56.0001 47.7392C60.0001 44.7818 56.5001 38.867 61.0001 41.0851C64.6001 42.8595 64.0001 46.9998 61.0001 46.9998C58.0001 46.2605 57.6001 41.0851 64.0001 41.0851C70.4001 41.0851 71.3334 43.5495 71.0001 44.7818C69.6667 46.5069 66.8001 49.5136 66.0001 47.7392C65.0001 45.5211 65.0001 38.867 68.0001 39.6063C71.0001 40.3457 72.5001 43.3031 75.0001 43.3031C77.5001 43.3031 77.5001 39.6064 79.0001 41.0851" stroke="#DFD591" stroke-width="0.15" stroke-linecap="round"/>
<path d="M103.525 26.101H25.5324C25.3762 26.101 25.2336 26.1921 25.1713 26.3354C23.4379 30.3194 23.7906 34.8143 25.1746 38.2141C25.2348 38.3622 25.3797 38.457 25.5396 38.457H103.503C103.759 38.457 103.948 38.2213 103.901 37.9706C103.135 33.9541 103.552 29.0055 103.924 26.5698C103.961 26.3246 103.773 26.101 103.525 26.101Z" fill="#B4DF91"/>
<path d="M93.347 27.2828H103.452C103.589 27.2828 103.698 27.3992 103.691 27.536C103.463 32.3452 103.558 35.3229 103.659 36.4693C103.672 36.6128 103.56 36.7374 103.416 36.7374H93.3587C93.2966 36.7374 93.2352 36.7119 93.1909 36.6683C89.0912 32.6373 91.4424 28.8098 93.1972 27.3362C93.2394 27.3008 93.2919 27.2828 93.347 27.2828Z" fill="#FFE8DA"/>
<path d="M79.0001 33.9212C74.6001 30.9638 71.8334 32.6889 71.0001 33.9212C68.5001 34.4141 64.0001 34.6605 66.0001 31.7031C68.0001 28.7457 68.8334 30.4709 69.0001 31.7031C69.1667 34.1676 68.7001 38.5051 65.5001 36.1392C61.5001 33.1818 65.0001 27.2671 60.5001 29.4851C56.9001 31.2595 57.5001 35.3999 60.5001 35.3998C63.5001 34.6605 63.9001 29.4851 57.5001 29.4851C51.1001 29.4851 50.1667 31.9496 50.5001 33.1818C51.8334 34.907 54.7001 37.9137 55.5001 36.1392C56.5001 33.9212 56.5001 27.267 53.5001 28.0064C50.5001 28.7457 49.0001 31.7031 46.5001 31.7031C44.0001 31.7031 44.0001 28.0064 42.5001 29.4851" stroke="black" stroke-width="0.15" stroke-linecap="round"/>
<path d="M103.525 14.101H25.5324C25.3762 14.101 25.2336 14.1921 25.1713 14.3354C23.4379 18.3194 23.7906 22.8143 25.1746 26.2141C25.2348 26.3622 25.3797 26.457 25.5396 26.457H103.503C103.759 26.457 103.948 26.2213 103.901 25.9706C103.135 21.9541 103.552 17.0055 103.924 14.5698C103.961 14.3246 103.773 14.101 103.525 14.101Z" fill="#DFB291"/>
<path d="M93.347 15.2828H103.452C103.589 15.2828 103.698 15.3992 103.691 15.536C103.463 20.3452 103.558 23.3229 103.659 24.4693C103.672 24.6128 103.56 24.7374 103.416 24.7374H93.3587C93.2966 24.7374 93.2352 24.7119 93.1909 24.6683C89.0912 20.6373 91.4424 16.8098 93.1972 15.3362C93.2394 15.3008 93.2919 15.2828 93.347 15.2828Z" fill="#FFE8DA"/>
<path d="M79.0001 21.9212C74.6001 18.9638 71.8334 20.6889 71.0001 21.9212C68.5001 22.4141 64.0001 22.6605 66.0001 19.7031C68.0001 16.7457 68.8334 18.4709 69.0001 19.7031C69.1667 22.1676 68.7001 26.5051 65.5001 24.1392C61.5001 21.1818 65.0001 15.2671 60.5001 17.4851C56.9001 19.2595 57.5001 23.3999 60.5001 23.3998C63.5001 22.6605 63.9001 17.4851 57.5001 17.4851C51.1001 17.4851 50.1667 19.9496 50.5001 21.1818C51.8334 22.907 54.7001 25.9137 55.5001 24.1392C56.5001 21.9212 56.5001 15.267 53.5001 16.0064C50.5001 16.7457 49.0001 19.7031 46.5001 19.7031C44.0001 19.7031 44.0001 16.0064 42.5001 17.4851" stroke="#FFE8DA" stroke-width="0.15" stroke-linecap="round"/>
<path d="M92.1983 0.119973L86.1034 3.75829C86.0446 3.79341 86.0215 3.86712 86.0499 3.9295L106.991 50.022C107.013 50.0701 107.06 50.101 107.113 50.101H124.507C124.534 50.101 124.561 50.0928 124.583 50.0775L129.906 46.4462C129.96 46.4091 129.98 46.3382 129.952 46.2785L108.62 0.179007C108.598 0.131415 108.551 0.100952 108.498 0.100952H92.2673C92.243 0.100952 92.2192 0.107525 92.1983 0.119973Z" fill="#917CC5"/>
<path d="M128.832 47.2084H114.814L108.974 50.101H124.549L128.832 47.2084Z" fill="#FDE6D5"/>
<path d="M92.6197 0.100952L114.425 46.3819M114.425 46.3819H130M114.425 46.3819L107.027 50.101" stroke="black" stroke-width="0.201849" stroke-linecap="round"/>
<path d="M359.988 13.101H377.684C377.837 13.101 377.961 13.2248 377.961 13.3775V94.9574C377.961 95.1101 377.837 95.2339 377.684 95.2339H351.277C351.125 95.2339 351.001 95.1101 351.001 94.9574V13.9634C351.001 13.8179 351.114 13.6973 351.259 13.6875L359.988 13.101Z" fill="#B9754D"/>
<rect x="-0.5" y="0.5" width="10" height="62" rx="2.74038" transform="matrix(-1 0 0 1 373.961 24.1939)" fill="#B9754D" stroke="#E9E4CA"/>
<path d="M359.988 18.5363H377.961" stroke="#FBFBFB" stroke-width="0.138256"/>
<path d="M359.988 13.101V95.2339" stroke="black" stroke-width="0.276513"/>
<path d="M343.321 19.101H359.705C359.846 19.101 359.961 19.2156 359.961 19.3569V94.8849C359.961 95.0263 359.846 95.1409 359.705 95.1409H335.257C335.116 95.1409 335.001 95.0263 335.001 94.8849V19.8994C335.001 19.7647 335.105 19.6531 335.24 19.644L343.321 19.101Z" fill="#98B94D"/>
<path d="M354.736 45.5273C350.602 42.5469 343.718 36.9323 349.256 38.3168C354.793 39.7012 350.986 43.2199 350.121 47.8347C349.256 52.4494 351.275 65.8898 352.428 58.5062C353.871 49.2768 352.717 50.7189 353.294 48.4115C353.871 46.1041 357.908 50.4304 356.755 53.0263C355.601 55.6221 348.91 52.161 348.679 57.9294C348.448 63.6979 352.044 67.4473 353.871 68.601" stroke="#D2CD3E" stroke-width="0.3"/>
<rect width="10" height="3" rx="1" transform="matrix(-1 0 0 1 356.961 83.101)" fill="#FFEACD" fill-opacity="0.88"/>
<rect width="10" height="3" rx="1" transform="matrix(-1 0 0 1 356.961 22.101)" fill="#FFEACD" fill-opacity="0.88"/>
<path d="M343.321 19.101V95.1409" stroke="black" stroke-width="0.256"/>
<path d="M324.321 12.101H340.705C340.846 12.101 340.961 12.2156 340.961 12.3569V94.8849C340.961 95.0263 340.846 95.1409 340.705 95.1409H316.257C316.116 95.1409 316.001 95.0263 316.001 94.8849V12.9494C316.001 12.8153 316.104 12.7039 316.238 12.6941L324.321 12.101Z" fill="#4D52B9"/>
<rect x="-0.15" y="0.15" width="9.7" height="65.7" rx="4.85" transform="matrix(-1 0 0 1 337.661 24.101)" fill="url(#pattern0_117_200)" stroke="#FBFBFB" stroke-width="0.3"/>
<path d="M324.321 17.5963H340.961" stroke="#FBFBFB" stroke-width="0.128"/>
<path d="M324.321 12.101V95.1409" stroke="black" stroke-width="0.256"/>
<path d="M305.321 12.101H321.705C321.846 12.101 321.961 12.2156 321.961 12.3569V94.8849C321.961 95.0263 321.846 95.1409 321.705 95.1409H297.257C297.115 95.1409 297.001 95.0263 297.001 94.8849V12.9494C297.001 12.8153 297.104 12.7039 297.238 12.6941L305.321 12.101Z" fill="#B94D75"/>
<rect x="-0.15" y="0.15" width="9.7" height="65.7" rx="4.85" transform="matrix(-1 0 0 1 318.661 24.101)" fill="#B94D75" stroke="#FBFBFB" stroke-width="0.3"/>
<path d="M305.321 17.5963H321.961" stroke="#FBFBFB" stroke-width="0.128"/>
<path d="M305.321 12.101V95.1409" stroke="black" stroke-width="0.256"/>
<path d="M294.724 17.1342L304.79 22.8058C304.909 22.8727 304.955 23.0202 304.896 23.143L270.187 95.252C270.144 95.3414 270.053 95.3983 269.954 95.3983H241.121C241.072 95.3983 241.023 95.384 240.981 95.3572L232.194 89.699C232.084 89.6281 232.045 89.4858 232.102 89.368L267.461 17.2456C267.505 17.1571 267.595 17.101 267.693 17.101H294.597C294.641 17.101 294.685 17.1124 294.724 17.1342Z" fill="#E0D36A"/>
<path d="M233.939 90.8688H257.196L266.886 95.3984H241.045L233.939 90.8688Z" fill="#FDE6D5"/>
<path d="M294.019 17.101L257.842 89.5746M257.842 89.5746H232.001M257.842 89.5746L270.116 95.3984" stroke="black" stroke-width="0.387611" stroke-linecap="round"/>
<path d="M277.724 17.1342L287.79 22.8058C287.909 22.8727 287.955 23.0202 287.896 23.143L253.187 95.252C253.144 95.3414 253.053 95.3983 252.954 95.3983H224.121C224.072 95.3983 224.023 95.384 223.982 95.3572L215.195 89.699C215.084 89.6281 215.045 89.4858 215.102 89.368L250.461 17.2456C250.505 17.1571 250.595 17.101 250.693 17.101H277.597C277.642 17.101 277.685 17.1124 277.724 17.1342Z" fill="#E0AB6A"/>
<path d="M216.939 90.8688H240.196L249.886 95.3984H224.045L216.939 90.8688Z" fill="#FDE6D5"/>
<path d="M277.019 17.101L240.842 89.5746M240.842 89.5746H215.001M240.842 89.5746L253.116 95.3984" stroke="black" stroke-width="0.387611" stroke-linecap="round"/>
<path d="M253.698 26.3803C257.878 23.8701 265.211 21.1028 261.1 30.1154C256.989 39.128 252.639 36.0576 254.986 31.4066C257.121 28.2275 258.962 29.7298 257.711 32.4892C257.64 32.6469 257.543 32.7929 257.435 32.9277L251.749 39.9852C249.948 41.7507 246.663 45.734 247.935 47.543C249.208 49.3521 251.57 47.9183 253.037 45.0114C255.393 38.1769 248.932 32.1447 246.79 43.3179C244.745 53.9865 241.857 58.9543 240.499 60.3072C240.381 60.4249 240.265 60.5404 240.163 60.6727C238.628 62.6751 236.077 66.8548 237.081 69.0538C238.118 71.3279 234.277 78.5799 232.226 81.9217" stroke="#FFE8DA" stroke-width="0.307831" stroke-linecap="round"/>
<defs>
<pattern id="pattern0_117_200" patternUnits="userSpaceOnUse" patternTransform="matrix(5.5 0 0 9.53333 0 0)" preserveAspectRatio="none" viewBox="0 0 55 95.3333" width="1" height="1">
<use xlink:href="#pattern0_117_200_inner" transform="translate(-55 0)"/>
<g id="pattern0_117_200_inner">
<path fill-rule="evenodd" clip-rule="evenodd" d="M11.1099 23.8333L0 18.1704L8.18863 5.66299L19.305 11.3162L19.3113 0H35.6887L35.695 11.3162L46.8113 5.66299L55 18.1704L43.89 23.8333L55 29.4963L46.8113 42.0037L35.695 36.3505L35.6887 47.6667H19.3113L19.305 36.3505L8.18863 42.0037L0 29.4963L11.1099 23.8333Z" fill="white"/>
</g>
<use xlink:href="#pattern0_117_200_inner" transform="translate(-27.5 47.6667)"/>
<use xlink:href="#pattern0_117_200_inner" transform="translate(27.5 47.6667)"/>
</pattern></defs>
</svg>
