<svg width="389" height="106" viewBox="0 0 389 106" fill="none" xmlns="http://www.w3.org/2000/svg" xmlns:xlink="http://www.w3.org/1999/xlink">
<path d="M61.64 23H51.256C51.1146 23 51 23.1146 51 23.256V90.784C51 90.9254 51.1146 91.04 51.256 91.04H66.704C66.8454 91.04 66.96 90.9254 66.96 90.784V23.7333C66.96 23.6012 66.8595 23.4908 66.728 23.4785L61.64 23Z" fill="#4DB980"/>
<path d="M61.64 27.5026H51" stroke="#FBFBFB" stroke-width="0.128"/>
<rect x="63" y="85" width="3" height="12" transform="rotate(90 63 85)" fill="#D2CD3E"/>
<rect x="63" y="27" width="3" height="12" transform="rotate(90 63 27)" fill="#D2CD3E"/>
<path d="M54.5763 68.5512C55.9607 70.3991 58.7813 72.9862 58.989 68.5512C59.1923 64.2106 56.5112 64.4537 56.397 66.6544C56.392 66.7508 56.3994 66.8492 56.4177 66.944C56.7065 68.4373 57.8053 68.2495 57.9377 67.0464C57.9555 66.8841 57.9304 66.7205 57.8902 66.5622L56.9124 62.7158C56.4798 61.646 55.8741 59.3896 56.9124 58.9228C57.9128 58.473 58.6722 59.4316 58.7264 60.807C58.7305 60.9121 58.7219 61.0185 58.7007 61.1215C58.0637 64.2094 53.721 65.2029 55.355 60.3816C56.8769 55.891 56.7722 53.3431 56.4778 52.4238C56.4313 52.2787 56.3741 52.1376 56.343 51.9884C56.1055 50.8481 55.9416 48.7819 56.9124 48.1272C57.9507 47.427 57.8642 43.7506 57.6912 42" stroke="#FFE8DA" stroke-width="0.3" stroke-linecap="round"/>
<path d="M62 23V91" stroke="black" stroke-width="0.276513"/>
<path d="M72.64 23H62.256C62.1146 23 62 23.1146 62 23.256V90.784C62 90.9254 62.1146 91.04 62.256 91.04H77.704C77.8454 91.04 77.96 90.9254 77.96 90.784V23.7333C77.96 23.6012 77.8595 23.4908 77.728 23.4785L72.64 23Z" fill="#4DB980"/>
<path d="M72.64 27.5026H62" stroke="#FBFBFB" stroke-width="0.128"/>
<rect x="74" y="85" width="3" height="12" transform="rotate(90 74 85)" fill="#D2CD3E"/>
<rect x="74" y="27" width="3" height="12" transform="rotate(90 74 27)" fill="#D2CD3E"/>
<path d="M70.4237 45.4488C69.0393 43.6009 66.2187 41.0138 66.011 45.4488C65.8077 49.7894 68.4888 49.5463 68.603 47.3456C68.608 47.2492 68.6006 47.1508 68.5823 47.056C68.2935 45.5627 67.1947 45.7505 67.0623 46.9536C67.0445 47.1159 67.0696 47.2795 67.1098 47.4378L68.0876 51.2842C68.5202 52.354 69.1259 54.6104 68.0876 55.0772C67.0872 55.527 66.3278 54.5684 66.2736 53.193C66.2695 53.0879 66.2781 52.9815 66.2993 52.8785C66.9363 49.7906 71.279 48.7971 69.645 53.6184C68.1231 58.109 68.2278 60.6569 68.5222 61.5762C68.5687 61.7213 68.6259 61.8624 68.657 62.0116C68.8945 63.1519 69.0584 65.2181 68.0876 65.8728C67.0493 66.573 67.1358 70.2494 67.3088 72" stroke="#FFE8DA" stroke-width="0.3" stroke-linecap="round"/>
<path d="M89.9733 10.907H72.2765C72.1238 10.907 72 11.0308 72 11.1836V92.7635C72 92.9162 72.1238 93.04 72.2765 93.04H98.6835C98.8362 93.04 98.96 92.9162 98.96 92.7635V11.7695C98.96 11.624 98.8472 11.5034 98.702 11.4936L89.9733 10.907Z" fill="#4DB1B9"/>
<rect x="75.5" y="22.5" width="10" height="62" rx="2.74038" stroke="#E9E4CA"/>
<path d="M89.9733 16.3423H72" stroke="#FBFBFB" stroke-width="0.138256"/>
<path d="M89.9734 10.907V93.04" stroke="black" stroke-width="0.276513"/>
<path d="M107.64 18H91.256C91.1146 18 91 18.1146 91 18.256V93.784C91 93.9254 91.1146 94.04 91.256 94.04H115.704C115.845 94.04 115.96 93.9254 115.96 93.784V18.7985C115.96 18.6638 115.856 18.5521 115.721 18.5431L107.64 18Z" fill="#98B94D"/>
<path d="M96.2251 44.4263C100.359 41.446 107.243 35.8314 101.705 37.2158C96.1675 38.6002 99.9746 42.119 100.84 46.7337C101.705 51.3484 99.6862 64.7889 98.5325 57.4053C97.0904 48.1758 98.2441 49.618 97.6672 47.3106C97.0904 45.0032 93.0525 49.3295 94.2062 51.9253C95.3599 54.5211 102.051 51.06 102.282 56.8285C102.513 62.5969 98.9171 66.3464 97.0904 67.5001" stroke="#D2CD3E" stroke-width="0.3"/>
<rect x="94" y="82" width="10" height="3" rx="1" fill="#FFEACD" fill-opacity="0.88"/>
<rect x="94" y="21" width="10" height="3" rx="1" fill="#FFEACD" fill-opacity="0.88"/>
<path d="M107.64 18V94.04" stroke="black" stroke-width="0.256"/>
<path d="M118.64 23H108.256C108.115 23 108 23.1146 108 23.256V90.784C108 90.9254 108.115 91.04 108.256 91.04H123.704C123.845 91.04 123.96 90.9254 123.96 90.784V23.7333C123.96 23.6012 123.859 23.4908 123.728 23.4785L118.64 23Z" fill="#B9754D"/>
<path d="M118.64 27.5026H108" stroke="#FBFBFB" stroke-width="0.128"/>
<rect x="120" y="85" width="3" height="12" transform="rotate(90 120 85)" fill="#D2CD3E"/>
<rect x="120" y="27" width="3" height="12" transform="rotate(90 120 27)" fill="#D2CD3E"/>
<path d="M116.424 45.4488C115.039 43.6009 112.219 41.0138 112.011 45.4488C111.808 49.7894 114.489 49.5463 114.603 47.3456C114.608 47.2492 114.601 47.1508 114.582 47.056C114.294 45.5627 113.195 45.7505 113.062 46.9536C113.044 47.1159 113.07 47.2795 113.11 47.4378L114.088 51.2842C114.52 52.354 115.126 54.6104 114.088 55.0772C113.087 55.527 112.328 54.5684 112.274 53.193C112.27 53.0879 112.278 52.9815 112.299 52.8785C112.936 49.7906 117.279 48.7971 115.645 53.6184C114.123 58.109 114.228 60.6569 114.522 61.5762C114.569 61.7213 114.626 61.8624 114.657 62.0116C114.895 63.1519 115.058 65.2181 114.088 65.8728C113.049 66.573 113.136 70.2494 113.309 72" stroke="#FFE8DA" stroke-width="0.3" stroke-linecap="round"/>
<path d="M136.64 8H120.256C120.115 8 120 8.11461 120 8.256V90.784C120 90.9254 120.115 91.04 120.256 91.04H144.704C144.845 91.04 144.96 90.9254 144.96 90.784V8.84849C144.96 8.71437 144.856 8.60299 144.723 8.59318L136.64 8Z" fill="#A34DB9"/>
<rect x="123.15" y="20.15" width="9.7" height="65.7" fill="url(#pattern0_384_226)" stroke="#FBFBFB" stroke-width="0.3"/>
<path d="M136.64 13.4953H120" stroke="#FBFBFB" stroke-width="0.128"/>
<path d="M136.64 8V91.04" stroke="black" stroke-width="0.256"/>
<path d="M149.64 22H139.256C139.115 22 139 22.1146 139 22.256V89.784C139 89.9254 139.115 90.04 139.256 90.04H154.704C154.845 90.04 154.96 89.9254 154.96 89.784V22.7333C154.96 22.6012 154.859 22.4908 154.728 22.4785L149.64 22Z" fill="#4DB980"/>
<rect x="149" y="26" width="3" height="10" transform="rotate(90 149 26)" fill="#D2CD3E"/>
<rect x="149" y="84" width="3" height="10" transform="rotate(90 149 84)" fill="#D2CD3E"/>
<path d="M149 22V94.04" stroke="black" stroke-width="0.249176"/>
<path d="M147.424 44.4488C146.039 42.6009 143.219 40.0138 143.011 44.4488C142.808 48.7894 145.489 48.5463 145.603 46.3456C145.608 46.2492 145.601 46.1508 145.582 46.056C145.294 44.5627 144.195 44.7505 144.062 45.9536C144.044 46.1159 144.07 46.2795 144.11 46.4378L145.088 50.2842C145.52 51.354 146.126 53.6104 145.088 54.0772C144.087 54.527 143.328 53.5684 143.274 52.193C143.27 52.0879 143.278 51.9815 143.299 51.8785C143.936 48.7906 148.279 47.7971 146.645 52.6184C145.123 57.109 145.228 59.6569 145.522 60.5762C145.569 60.7213 145.626 60.8624 145.657 61.0116C145.895 62.1519 146.058 64.2181 145.088 64.8728C144.049 65.573 144.136 69.2494 144.309 71" stroke="#FFE8DA" stroke-width="0.3" stroke-linecap="round"/>
<rect y="87" width="389" height="19" rx="2.56" fill="#AE563E"/>
<path d="M156.321 30.7175L149.15 34.7575C149.066 34.8052 149.033 34.9103 149.075 34.9977L173.799 86.363C173.83 86.4267 173.895 86.4672 173.965 86.4672H194.503C194.539 86.4672 194.573 86.4571 194.603 86.4379L200.862 82.4075C200.941 82.3569 200.969 82.2556 200.928 82.1717L175.741 30.7968C175.71 30.7338 175.646 30.6938 175.576 30.6938H156.411C156.379 30.6938 156.348 30.702 156.321 30.7175Z" fill="#6A4931"/>
<path d="M199.619 83.2407H183.053L176.15 86.4673H194.558L199.619 83.2407Z" fill="#FDE6D5"/>
<path d="M156.823 30.6938L182.593 82.3188M182.593 82.3188H201M182.593 82.3188L173.85 86.4672" stroke="black" stroke-width="0.276106" stroke-linecap="round"/>
<path d="M156.321 30.7175L149.15 34.7575C149.066 34.8052 149.033 34.9103 149.075 34.9977L173.799 86.363C173.83 86.4267 173.895 86.4672 173.965 86.4672H194.503C194.539 86.4672 194.573 86.4571 194.603 86.4379L200.862 82.4075C200.941 82.3569 200.969 82.2556 200.928 82.1717L175.741 30.7968C175.71 30.7338 175.646 30.6938 175.576 30.6938H156.411C156.379 30.6938 156.348 30.702 156.321 30.7175Z" fill="#6A4931"/>
<path d="M199.619 83.2407H183.053L176.15 86.4673H194.558L199.619 83.2407Z" fill="#FDE6D5"/>
<path d="M156.823 30.6938L182.593 82.3188M182.593 82.3188H201M182.593 82.3188L173.85 86.4672" stroke="black" stroke-width="0.276106" stroke-linecap="round"/>
<path d="M201.64 3H185.256C185.115 3 185 3.11461 185 3.256V85.784C185 85.9254 185.115 86.04 185.256 86.04H209.704C209.845 86.04 209.96 85.9254 209.96 85.784V3.84849C209.96 3.71437 209.856 3.60299 209.723 3.59318L201.64 3Z" fill="#B13333"/>
<rect x="188.15" y="15.15" width="9.7" height="65.7" stroke="#FBFBFB" stroke-width="0.3"/>
<path d="M201.64 8.4953H185" stroke="#FBFBFB" stroke-width="0.128"/>
<path d="M201.64 3V86.04" stroke="black" stroke-width="0.256"/>
<path d="M218.64 11H202.256C202.115 11 202 11.1146 202 11.256V86.784C202 86.9254 202.115 87.04 202.256 87.04H226.704C226.845 87.04 226.96 86.9254 226.96 86.784V11.7985C226.96 11.6638 226.856 11.5521 226.721 11.5431L218.64 11Z" fill="#4DB1B9"/>
<rect x="205" y="23" width="10" height="58" rx="3" fill="#FFEACD" fill-opacity="0.88"/>
<path d="M218.64 16.032H202" stroke="#FBFBFB" stroke-width="0.128"/>
<path d="M218.64 11V87.04" stroke="black" stroke-width="0.256"/>
<path d="M235.4 0H219.016C218.875 0 218.76 0.114611 218.76 0.255996V86.784C218.76 86.9254 218.875 87.04 219.016 87.04H243.464C243.605 87.04 243.72 86.9254 243.72 86.784V0.877064C243.72 0.743295 243.617 0.632077 243.484 0.621818L235.4 0Z" fill="#92BBC1"/>
<path d="M235.4 5.76001H218.76" stroke="black" stroke-width="0.128"/>
<path d="M235.4 0V87.04" stroke="black" stroke-width="0.256"/>
<rect x="220.04" y="14.0479" width="9.91057" height="9.91057" rx="0.256" transform="rotate(-45 220.04 14.0479)" fill="#568E9E"/>
<rect x="220.04" y="70.3679" width="9.91057" height="9.91057" rx="0.256" transform="rotate(-45 220.04 70.3679)" fill="#568E9E"/>
<rect x="220.04" y="56.2878" width="9.91057" height="9.91057" rx="0.256" transform="rotate(-45 220.04 56.2878)" fill="#568E9E"/>
<rect x="220.04" y="42.2079" width="9.91057" height="9.91057" rx="0.256" transform="rotate(-45 220.04 42.2079)" fill="#568E9E"/>
<rect x="220.04" y="28.1279" width="9.91057" height="9.91057" rx="0.256" transform="rotate(-45 220.04 28.1279)" fill="#568E9E"/>
<path d="M246.493 15.36H235.656C235.515 15.36 235.4 15.4746 235.4 15.616V86.784C235.4 86.9254 235.515 87.04 235.656 87.04H251.784C251.925 87.04 252.04 86.9254 252.04 86.784V16.1199C252.04 15.9879 251.94 15.8775 251.808 15.865L246.493 15.36Z" fill="#FFDDAF"/>
<rect x="237.6" y="75" width="7" height="7" rx="3" fill="#FCECD8" fill-opacity="0.88"/>
<path d="M246.9 20.1035H235.4" stroke="black" stroke-width="0.128"/>
<path d="M260.566 65.75H358.195C358.382 65.75 358.555 65.856 358.638 66.0238C362.734 74.2622 360.734 82.914 358.638 86.9891C358.554 87.1522 358.386 87.25 358.202 87.25H260.585C260.278 87.25 260.043 86.9763 260.087 86.6722C261.116 79.4932 260.545 70.4992 260.067 66.3086C260.033 66.0097 260.266 65.75 260.566 65.75Z" fill="#BFDF91"/>
<path d="M275.876 67.25H260.584C260.414 67.25 260.278 67.3945 260.284 67.5647C260.645 76.8029 260.484 82.4218 260.326 84.4214C260.312 84.5984 260.451 84.75 260.629 84.75H275.86C275.949 84.75 276.035 84.7091 276.091 84.641C282.297 77.1617 278.732 70.0574 276.086 67.3367C276.03 67.2796 275.955 67.25 275.876 67.25Z" fill="#FFE8DA"/>
<path d="M342.389 81.25C346.149 78.4335 351.412 72.6948 342.389 72.2724C333.558 71.8589 334.053 77.3135 338.53 77.5457C338.726 77.5559 338.926 77.5409 339.119 77.5037C342.157 76.9162 341.775 74.6805 339.328 74.4113C338.997 74.3749 338.665 74.4261 338.343 74.508L330.517 76.4971C328.341 77.3773 323.75 78.6095 322.8 76.4971C321.885 74.4619 323.836 72.9168 326.634 72.8067C326.848 72.7983 327.064 72.8157 327.274 72.8589C333.556 74.155 335.577 82.99 325.768 79.6657C316.632 76.5694 311.449 76.7824 309.578 77.3813C309.283 77.4759 308.996 77.5923 308.692 77.6556C306.373 78.1389 302.169 78.4722 300.837 76.4971C299.412 74.3847 291.933 74.5608 288.371 74.9128" stroke="#FFE8DA" stroke-width="0.5" stroke-linecap="round"/>
<path d="M260.645 55.35H358.235C358.401 55.35 358.557 55.4324 358.646 55.5721C360.791 58.926 360.358 62.7042 358.644 65.5707C358.556 65.7178 358.396 65.8051 358.225 65.8051H260.688C260.348 65.8051 260.107 65.4734 260.192 65.1445C261.025 61.9167 260.585 58.0548 260.146 55.9777C260.078 55.6581 260.318 55.35 260.645 55.35Z" fill="#91ACDF"/>
<path d="M273.359 56.35H260.694C260.52 56.35 260.382 56.499 260.394 56.6728C260.658 60.5113 260.561 62.952 260.442 63.9949C260.421 64.1809 260.564 64.35 260.752 64.35H273.347C273.405 64.35 273.464 64.3316 273.513 64.2994C278.67 60.8782 275.701 57.6288 273.502 56.387C273.458 56.3621 273.409 56.35 273.359 56.35Z" fill="#FFE8DA"/>
<path d="M352.871 55.37C353.705 57.0367 354.871 61.47 352.871 65.87" stroke="#FFE8DA" stroke-width="0.13"/>
<path d="M349.871 55.37C350.705 57.0367 351.871 61.47 349.871 65.87" stroke="#FFE8DA" stroke-width="0.13"/>
<path d="M283.871 55.37C284.705 57.0367 285.871 61.47 283.871 65.87" stroke="#FFE8DA" stroke-width="0.13"/>
<path d="M280.871 55.37C281.705 57.0367 282.871 61.47 280.871 65.87" stroke="#FFE8DA" stroke-width="0.13"/>
<path d="M349.856 47H271.859C271.727 47 271.602 47.0659 271.53 47.1775C269.817 49.8581 270.163 52.8777 271.532 55.1687C271.602 55.2863 271.73 55.356 271.867 55.356H349.821C350.093 55.356 350.286 55.0909 350.218 54.8281C349.552 52.2483 349.904 49.1618 350.255 47.5017C350.309 47.2463 350.117 47 349.856 47Z" fill="#91C1DF"/>
<path d="M339.695 47.7993H349.817C349.956 47.7993 350.066 47.9183 350.056 48.0573C349.845 51.1251 349.923 53.0758 350.018 53.9093C350.035 54.058 349.92 54.1931 349.771 54.1931H339.704C339.658 54.1931 339.61 54.1784 339.571 54.1527C335.45 51.4183 337.823 48.8213 339.58 47.8288C339.615 47.809 339.654 47.7993 339.695 47.7993Z" fill="#FFE8DA"/>
<path d="M325.371 52.2886C320.971 50.2886 318.205 51.4552 317.371 52.2886C314.871 52.6219 310.371 52.7886 312.371 50.7886C314.371 48.7886 315.205 49.9552 315.371 50.7886C315.538 52.4552 315.071 55.3886 311.871 53.7886C307.871 51.7886 311.371 47.7886 306.871 49.2886C303.271 50.4886 303.871 53.2886 306.871 53.2886C309.871 52.7886 310.271 49.2886 303.871 49.2886C297.471 49.2886 296.538 50.9552 296.871 51.7886C298.205 52.9552 301.071 54.9886 301.871 53.7886C302.871 52.2886 302.871 47.7886 299.871 48.2886C296.871 48.7886 295.371 50.7886 292.871 50.7886C290.371 50.7886 290.371 48.2886 288.871 49.2886" stroke="black" stroke-width="0.15" stroke-linecap="round"/>
<defs>
<pattern id="pattern0_384_226" patternUnits="userSpaceOnUse" patternTransform="matrix(2.65424 0 0 8.7 122.955 19.955)" preserveAspectRatio="none" viewBox="-0.150024 -0.150009 8.84746 29" width="1" height="1">
<use xlink:href="#pattern0_384_226_inner" transform="translate(-4.42373 -43.5)"/>
<use xlink:href="#pattern0_384_226_inner" transform="translate(0 -58)"/>
<use xlink:href="#pattern0_384_226_inner" transform="translate(4.42373 -43.5)"/>
<use xlink:href="#pattern0_384_226_inner" transform="translate(-4.42373 -14.5)"/>
<use xlink:href="#pattern0_384_226_inner" transform="translate(0 -29)"/>
<use xlink:href="#pattern0_384_226_inner" transform="translate(4.42373 -14.5)"/>
<use xlink:href="#pattern0_384_226_inner" transform="translate(-4.42373 14.5)"/>
<g id="pattern0_384_226_inner">
<path d="M4.42373 2.44875C3.03934 0.600866 0.21865 -1.98617 0.0109922 2.44875C-0.19225 6.78937 2.48883 6.54631 2.60297 4.3456C2.60797 4.2492 2.60063 4.15079 2.5823 4.05602C2.29354 2.56271 1.19467 2.75045 1.06232 3.95358C1.04446 4.11593 1.06961 4.27949 1.10985 4.43779L2.08756 8.28422C2.52018 9.35405 3.12585 11.6104 2.08756 12.0772C1.08718 12.527 0.327758 11.5684 0.273643 10.193C0.269509 10.0879 0.278069 9.98146 0.299313 9.87848C0.936337 6.79057 5.27899 5.79711 3.645 10.6184C2.12309 15.109 2.2278 17.6569 2.52218 18.5762C2.56866 18.7213 2.62589 18.8624 2.65697 19.0116C2.89455 20.1519 3.05837 22.2181 2.08756 22.8728C1.04927 23.573 1.1358 27.2494 1.30885 29" stroke="#FFE8DA" stroke-width="0.3" stroke-linecap="round"/>
</g>
<use xlink:href="#pattern0_384_226_inner" transform="translate(4.42373 14.5)"/>
</pattern></defs>
</svg>
