<svg width="20" height="19" viewBox="0 0 20 19" fill="none" xmlns="http://www.w3.org/2000/svg">
<path d="M10.4572 15.9697L5.38817 17.6587C2.62317 18.5807 1.24017 19.0417 0.510172 18.3117C-0.219828 17.5817 0.241172 16.1987 1.16317 13.4337L2.85317 8.36468C3.61917 6.06668 4.00217 4.91768 4.90817 4.70468C5.81417 4.48968 6.67117 5.34668 8.38317 7.05968L11.7632 10.4387C13.4752 12.1517 14.3322 13.0077 14.1182 13.9137" fill="url(#paint0_linear_129_108)"/>
<path d="M10.4572 15.9697L5.38817 17.6587C2.62317 18.5807 1.24017 19.0417 0.510172 18.3117C-0.219828 17.5817 0.241172 16.1987 1.16317 13.4337L2.85317 8.36468C3.61917 6.06668 4.00217 4.91768 4.90817 4.70468C5.81417 4.48968 6.67117 5.34668 8.38317 7.05968L11.7632 10.4387C13.4752 12.1517 14.3322 13.0077 14.1182 13.9137" stroke="#444444" stroke-width="0.3" stroke-linecap="round"/>
<path d="M9.38619 16.0177C9.38619 16.0177 8.62819 13.7367 8.62819 12.2277C8.62819 10.7177 9.38619 8.43568 9.38619 8.43568M5.21619 17.1557C5.21619 17.1557 4.57619 14.4027 4.45819 12.6057C4.26319 9.63668 5.21619 5.02468 5.21619 5.02468M11.6612 7.67768L11.8042 6.95768C11.9502 6.23068 12.4742 5.63768 13.1772 5.40368C13.5224 5.28805 13.8311 5.0834 14.072 4.81038C14.3128 4.53736 14.4775 4.20564 14.5492 3.84868L14.6932 3.12868M14.7212 10.9247L14.9332 11.0477C15.5902 11.4277 16.4162 11.3437 16.9842 10.8407C17.2357 10.6169 17.5462 10.47 17.8787 10.4174C18.2112 10.3648 18.5518 10.4086 18.8602 10.5437L19.1512 10.6717M6.94619 0.450684C6.78215 0.7189 6.71317 1.03453 6.75036 1.34672C6.78755 1.65891 6.92874 1.9495 7.15119 2.17168L7.24919 2.26968C7.64219 2.66268 7.78719 3.23968 7.62619 3.77268" fill="url(#paint1_linear_129_108)"/>
<path d="M9.38619 16.0177C9.38619 16.0177 8.62819 13.7367 8.62819 12.2277C8.62819 10.7177 9.38619 8.43568 9.38619 8.43568M5.21619 17.1557C5.21619 17.1557 4.57619 14.4027 4.45819 12.6057C4.26319 9.63668 5.21619 5.02468 5.21619 5.02468M11.6612 7.67768L11.8042 6.95768C11.9502 6.23068 12.4742 5.63768 13.1772 5.40368C13.5224 5.28805 13.8311 5.0834 14.072 4.81038C14.3128 4.53736 14.4775 4.20564 14.5492 3.84868L14.6932 3.12868M14.7212 10.9247L14.9332 11.0477C15.5902 11.4277 16.4162 11.3437 16.9842 10.8407C17.2357 10.6169 17.5462 10.47 17.8787 10.4174C18.2112 10.3648 18.5518 10.4086 18.8602 10.5437L19.1512 10.6717M6.94619 0.450684C6.78215 0.7189 6.71317 1.03453 6.75036 1.34672C6.78755 1.65891 6.92874 1.9495 7.15119 2.17168L7.24919 2.26968C7.64219 2.66268 7.78719 3.23968 7.62619 3.77268" stroke="#444444" stroke-width="0.3" stroke-linecap="round"/>
<path d="M16.5884 12.9775C16.6392 12.9775 16.69 12.9874 16.7369 13.0068C16.7837 13.0262 16.826 13.055 16.8619 13.0908C16.8977 13.1266 16.9264 13.1691 16.9459 13.2158C16.9653 13.2627 16.9752 13.3135 16.9752 13.3643C16.9752 13.415 16.9653 13.4658 16.9459 13.5127C16.9264 13.5595 16.8977 13.6019 16.8619 13.6377C16.7894 13.7102 16.691 13.751 16.5884 13.751C16.486 13.7509 16.3875 13.7102 16.315 13.6377C16.2426 13.5652 16.2017 13.4668 16.2017 13.3643C16.2017 13.2618 16.2425 13.1633 16.315 13.0908C16.3509 13.0549 16.3941 13.0263 16.441 13.0068C16.4877 12.9875 16.5378 12.9776 16.5884 12.9775ZM14.688 7.82129C14.7386 7.82134 14.7888 7.83127 14.8355 7.85059C14.8824 7.87002 14.9256 7.89866 14.9615 7.93457C14.9974 7.97046 15.0251 8.01366 15.0445 8.06055C15.0639 8.10736 15.0747 8.15734 15.0748 8.20801C15.0748 8.25879 15.0639 8.30953 15.0445 8.35645C15.0251 8.4031 14.9972 8.44569 14.9615 8.48145C14.8891 8.55387 14.7905 8.59462 14.688 8.59473C14.5855 8.59473 14.4871 8.55392 14.4146 8.48145C14.3421 8.40893 14.3013 8.31057 14.3013 8.20801C14.3014 8.10555 14.3422 8.00703 14.4146 7.93457C14.4505 7.89882 14.4928 7.86996 14.5396 7.85059C14.5865 7.83118 14.6373 7.82129 14.688 7.82129ZM9.68805 4.82129C9.7386 4.82134 9.78879 4.83127 9.83551 4.85059C9.88243 4.87002 9.92558 4.89866 9.96149 4.93457C9.99736 4.97046 10.0251 5.01366 10.0445 5.06055C10.0639 5.10736 10.0747 5.15734 10.0748 5.20801C10.0748 5.25879 10.0639 5.30953 10.0445 5.35645C10.0251 5.40309 9.99716 5.44569 9.96149 5.48145C9.88906 5.55387 9.79046 5.59462 9.68805 5.59473C9.58553 5.59473 9.48712 5.55392 9.41461 5.48145C9.34209 5.40893 9.30133 5.31057 9.30133 5.20801C9.3014 5.10555 9.34216 5.00703 9.41461 4.93457C9.45045 4.89882 9.49284 4.86996 9.53961 4.85059C9.5865 4.83118 9.63731 4.82129 9.68805 4.82129ZM4.45856 1.60547C4.50934 1.60554 4.5601 1.61527 4.60699 1.63477C4.65374 1.65426 4.69623 1.68289 4.73199 1.71875C4.76783 1.75469 4.79662 1.79781 4.81598 1.84473C4.82558 1.86808 4.8326 1.89234 4.83746 1.91699L4.84528 1.99219C4.84521 2.04297 4.8345 2.09373 4.815 2.14062C4.79551 2.18735 4.76687 2.22987 4.73102 2.26562C4.65842 2.33797 4.56008 2.37904 4.45758 2.37891C4.35504 2.37876 4.25655 2.33725 4.18414 2.26465C4.11185 2.19205 4.0717 2.09367 4.07184 1.99121C4.07199 1.88867 4.11252 1.79018 4.18512 1.71777C4.22105 1.68197 4.26421 1.65411 4.3111 1.63477C4.35794 1.61547 4.40789 1.60541 4.45856 1.60547Z" fill="url(#paint2_linear_129_108)" stroke="#444444" stroke-width="0.3"/>
<path d="M16.5132 5.38583C15.8432 6.05583 16.3232 7.99983 16.3232 7.99983C16.3232 7.99983 18.2672 8.48083 18.9372 7.80983C19.6472 7.09983 19.2452 6.16983 18.1512 6.17183C18.1542 5.07783 17.2232 4.67583 16.5132 5.38583Z" fill="url(#paint3_linear_129_108)" stroke="#444444" stroke-width="0.3" stroke-linejoin="round"/>
<path d="M12.3392 1.08877L12.3122 1.18677C12.2822 1.29277 12.2662 1.34677 12.2742 1.39877C12.2812 1.45077 12.3092 1.49677 12.3672 1.58777L12.4192 1.66977C12.6212 1.98977 12.7222 2.14977 12.6532 2.28077C12.5842 2.41177 12.3912 2.42677 12.0052 2.45677L11.9052 2.46477C11.7952 2.47377 11.7412 2.47777 11.6932 2.50277C11.6452 2.52777 11.6102 2.57077 11.5382 2.65777L11.4742 2.73677C11.2232 3.04077 11.0982 3.19277 10.9542 3.17377C10.8122 3.15377 10.7462 2.97577 10.6142 2.61877L10.5802 2.52677C10.5432 2.42477 10.5242 2.37477 10.4872 2.33677C10.4502 2.30077 10.4002 2.28177 10.2982 2.24477L10.2062 2.21077C9.84915 2.07877 9.67115 2.01277 9.65115 1.87077C9.63115 1.72677 9.78415 1.60077 10.0882 1.35077L10.1672 1.28577C10.2532 1.21577 10.2972 1.17977 10.3222 1.13177C10.3472 1.08377 10.3522 1.02877 10.3602 0.918766L10.3682 0.818767C10.3982 0.433767 10.4132 0.240766 10.5442 0.171766C10.6742 0.102766 10.8342 0.203766 11.1542 0.405766L11.2372 0.457767C11.3282 0.515767 11.3742 0.543766 11.4262 0.550766C11.4782 0.557766 11.5322 0.542767 11.6382 0.512767L11.7362 0.485766C12.1112 0.378766 12.2992 0.325766 12.3992 0.425766C12.4992 0.525766 12.4462 0.713767 12.3392 1.08877Z" fill="url(#paint4_linear_129_108)" stroke="#444444" stroke-width="0.3"/>
<defs>
<linearGradient id="paint0_linear_129_108" x1="13.6332" y1="17.8831" x2="9.25038" y2="1.84004" gradientUnits="userSpaceOnUse">
<stop stop-color="#FFDDAF"/>
<stop offset="0.505774" stop-color="#D4F6FF"/>
<stop offset="1" stop-color="#C7E7FF"/>
</linearGradient>
<linearGradient id="paint1_linear_129_108" x1="18.6073" y1="16.2144" x2="12.7883" y2="-2.55308" gradientUnits="userSpaceOnUse">
<stop stop-color="#FFDDAF"/>
<stop offset="0.505774" stop-color="#D4F6FF"/>
<stop offset="1" stop-color="#C7E7FF"/>
</linearGradient>
<linearGradient id="paint2_linear_129_108" x1="16.6375" y1="13.1996" x2="12.936" y2="-1.17388" gradientUnits="userSpaceOnUse">
<stop stop-color="#FFDDAF"/>
<stop offset="0.505774" stop-color="#D4F6FF"/>
<stop offset="1" stop-color="#C7E7FF"/>
</linearGradient>
<linearGradient id="paint3_linear_129_108" x1="19.1764" y1="7.99004" x2="18.1945" y2="4.39646" gradientUnits="userSpaceOnUse">
<stop stop-color="#FFDDAF"/>
<stop offset="0.505774" stop-color="#D4F6FF"/>
<stop offset="1" stop-color="#C7E7FF"/>
</linearGradient>
<linearGradient id="paint4_linear_129_108" x1="12.563" y1="3.00488" x2="11.6159" y2="-0.461833" gradientUnits="userSpaceOnUse">
<stop stop-color="#FFDDAF"/>
<stop offset="0.505774" stop-color="#D4F6FF"/>
<stop offset="1" stop-color="#C7E7FF"/>
</linearGradient>
</defs>
</svg>
