<svg width="17" height="20" viewBox="0 0 17 20" fill="none" xmlns="http://www.w3.org/2000/svg">
<path d="M9.15039 0.951172C9.15057 0.374121 9.68747 0.00742793 10.1709 0.206055L10.2666 0.25293C13.0328 1.861 16.8496 5.34555 16.8496 10.5576C16.8496 13.4264 15.8545 15.4033 14.4834 16.7412C13.4304 17.7687 12.1494 18.4237 10.9141 18.8135C11.0962 18.6651 11.2698 18.4931 11.4248 18.291C11.8592 17.7246 12.1504 16.9437 12.1504 15.8906C12.1504 14.521 11.2844 13.6791 10.6162 13.2881H10.6152C10.3061 13.1083 9.97356 13.3465 9.94824 13.6611V13.6621C9.92379 13.9809 9.75831 14.2604 9.56152 14.3965C9.46471 14.4634 9.36647 14.4915 9.27734 14.4834C9.19055 14.4754 9.09407 14.4309 8.99805 14.3193C8.61171 13.8706 8.44434 13.2033 8.44434 12.7803V12.1904C8.44431 11.766 8.03308 11.4459 7.63477 11.6113L7.55469 11.6514C6.40098 12.3369 4.84961 13.7619 4.84961 15.8906C4.84965 17.2472 5.39942 18.1479 6.12598 18.7197C6.39527 18.9317 6.68778 19.097 6.9834 19.2246C5.78866 19.0568 4.33002 18.5689 3.06934 17.5518C1.45436 16.2486 0.150435 14.0699 0.150391 10.5566C0.150391 7.83561 1.57859 6.00583 2.95117 4.96094C3.29065 4.70175 3.66902 4.70271 3.97754 4.87109C4.28988 5.0417 4.53589 5.38825 4.58105 5.82812L4.66699 6.66602C4.72292 7.2136 4.99963 7.71759 5.38867 8.01172C5.7594 8.292 6.23657 8.3816 6.69922 8.12891L6.79199 8.07422C7.67173 7.50211 8.25929 6.53628 8.62695 5.5459C8.99518 4.55388 9.15039 3.51775 9.15039 2.7793V0.951172Z" fill="url(#paint0_linear_136_115)" stroke="#444444" stroke-width="0.3"/>
<defs>
<linearGradient id="paint0_linear_136_115" x1="16.3719" y1="18.3507" x2="9.55366" y2="-3.46622" gradientUnits="userSpaceOnUse">
<stop stop-color="#FFDDAF"/>
<stop offset="0.505774" stop-color="#D4F6FF"/>
<stop offset="1" stop-color="#C7E7FF"/>
</linearGradient>
</defs>
</svg>
