<svg width="534" height="217" viewBox="0 0 534 217" fill="none" xmlns="http://www.w3.org/2000/svg">
<path d="M217.069 51.9448V159H196.815V51.9448H217.069Z" fill="#444444"/>
<path d="M157.743 139.759H117.525L110.87 159H89.6035L125.915 57.8762H149.497L185.809 159H164.397L157.743 139.759ZM152.245 123.556L137.634 81.3126L123.022 123.556H152.245Z" fill="#444444"/>
<path d="M311.922 77.6959C321.47 77.6959 329.186 80.7339 335.069 86.8101C340.952 92.7897 343.894 101.181 343.894 111.983V159H323.64V114.731C323.64 108.366 322.049 103.495 318.866 100.12C315.683 96.6476 311.343 94.9115 305.846 94.9115C300.252 94.9115 295.815 96.6476 292.536 100.12C289.354 103.495 287.762 108.366 287.762 114.731V159H267.509V78.8532H287.762V88.8354C290.463 85.3634 293.887 82.6629 298.034 80.734C302.277 78.7086 306.907 77.6959 311.922 77.6959Z" fill="#444444"/>
<path d="M242.378 80.7926L242 159" stroke="#444444" stroke-width="20.1981"/>
<path d="M439.034 118.637C439.034 110.536 440.626 103.351 443.808 97.0816C447.087 90.8126 451.476 85.9903 456.973 82.6147C462.567 79.239 468.788 77.5512 475.636 77.5512C481.615 77.5512 486.823 78.7568 491.26 81.168C495.793 83.5791 499.41 86.6172 502.11 90.2821V78.8532H522.508V159H502.11V147.282C499.506 151.043 495.889 154.178 491.26 156.685C486.727 159.096 481.471 160.302 475.491 160.302C468.74 160.302 462.567 158.566 456.973 155.094C451.476 151.622 447.087 146.751 443.808 140.482C440.626 134.117 439.034 126.835 439.034 118.637ZM502.11 118.927C502.11 114.008 501.146 109.812 499.217 106.34C497.288 102.772 494.684 100.071 491.404 98.2389C488.125 96.31 484.605 95.3455 480.844 95.3455C477.082 95.3455 473.61 96.2618 470.427 98.0943C467.245 99.9267 464.641 102.627 462.615 106.196C460.686 109.668 459.722 113.815 459.722 118.637C459.722 123.46 460.686 127.703 462.615 131.368C464.641 134.937 467.245 137.685 470.427 139.614C473.707 141.543 477.179 142.508 480.844 142.508C484.605 142.508 488.125 141.591 491.404 139.759C494.684 137.83 497.288 135.13 499.217 131.658C501.146 128.089 502.11 123.845 502.11 118.927Z" fill="#444444"/>
<path d="M432.905 117.191C432.905 120.084 432.712 122.688 432.326 125.003H373.735C374.217 130.79 376.243 135.322 379.811 138.602C383.38 141.881 387.768 143.52 392.976 143.52C400.499 143.52 405.852 140.289 409.034 133.828H430.879C428.565 141.543 424.128 147.909 417.57 152.924C411.012 157.843 402.958 160.302 393.41 160.302C385.694 160.302 378.75 158.614 372.578 155.239C366.502 151.767 361.728 146.896 358.255 140.627C354.88 134.358 353.192 127.125 353.192 118.927C353.192 110.632 354.88 103.351 358.255 97.0816C361.631 90.8126 366.357 85.9903 372.433 82.6147C378.509 79.239 385.502 77.5512 393.41 77.5512C401.029 77.5512 407.829 79.1908 413.808 82.47C419.885 85.7491 424.562 90.4268 427.841 96.5029C431.217 102.483 432.905 109.378 432.905 117.191ZM411.928 111.404C411.831 106.196 409.951 102.049 406.286 98.9623C402.621 95.7795 398.136 94.1882 392.831 94.1882C387.816 94.1882 383.573 95.7313 380.101 98.8176C376.725 101.807 374.651 106.003 373.88 111.404H411.928Z" fill="#444444"/>
<path d="M34.6334 78.0731C35.1072 76.8658 36.6052 76.4484 37.6352 77.2363L44.6042 82.5687C45.3363 83.1287 46.3494 83.1426 47.0965 82.6028L54.2084 77.4644C55.2597 76.7049 56.7461 77.1632 57.1865 78.3831L60.1663 86.636C60.4794 87.5031 61.3236 88.0626 62.2441 88.0125L71.0059 87.5348C72.3009 87.4644 73.3026 88.6539 73.0136 89.9182L71.059 98.472C70.8536 99.3706 71.2614 100.298 72.0628 100.753L79.6917 105.088C80.8188 105.729 81.0189 107.271 80.0927 108.178L73.8235 114.317C73.1649 114.962 73.0062 115.963 73.434 116.779L77.5083 124.551C78.1105 125.699 77.4449 127.105 76.1747 127.368L67.5818 129.142C66.6792 129.329 66.0052 130.085 65.9237 131.003L65.1496 139.743C65.035 141.035 63.7152 141.858 62.5049 141.392L54.3167 138.24C53.4564 137.908 52.4809 138.18 51.916 138.909L46.5394 145.842C45.7447 146.867 44.1896 146.846 43.4232 145.8L38.239 138.72C37.6944 137.976 36.7266 137.678 35.8577 137.986L27.5858 140.912C26.363 141.344 25.0661 140.486 24.9872 139.191L24.4528 130.433C24.3966 129.513 23.7443 128.739 22.847 128.527L14.3059 126.516C13.0436 126.219 12.4174 124.796 13.0507 123.665L17.3367 116.008C17.787 115.204 17.6564 114.2 17.0158 113.537L10.9172 107.228C10.0158 106.295 10.2585 104.759 11.4033 104.149L19.1488 100.025C19.9622 99.5921 20.3955 98.6765 20.2149 97.7726L18.4956 89.1683C18.2416 87.8965 19.2756 86.7357 20.5681 86.8418L29.3136 87.5599C30.2322 87.6352 31.0921 87.0994 31.4288 86.2414L34.6334 78.0731Z" fill="url(#paint0_linear_78_94)" stroke="#444444" stroke-width="0.137342"/>
<path d="M236.579 43.9285C237.082 42.6836 238.637 42.2669 239.695 43.0935L241.15 44.2296C241.852 44.7785 242.832 44.8018 243.56 44.287L245.066 43.2213C246.163 42.446 247.696 42.9363 248.139 44.2036L248.748 45.9457C249.043 46.7873 249.854 47.3363 250.745 47.2968L252.588 47.2149C253.93 47.1553 254.955 48.3968 254.642 49.7026L254.213 51.4975C254.006 52.3645 254.391 53.265 255.162 53.7133L256.757 54.6412C257.918 55.3162 258.109 56.9148 257.14 57.8445L255.809 59.1223C255.165 59.7396 255.003 60.7056 255.409 61.4994L256.249 63.1424C256.861 64.3378 256.157 65.7859 254.84 66.0443L253.029 66.3993C252.154 66.5709 251.495 67.2957 251.407 68.183L251.226 70.0195C251.094 71.3557 249.719 72.1936 248.471 71.6986L246.756 71.0182C245.927 70.6895 244.981 70.9431 244.427 71.6421L243.282 73.0891C242.449 74.1418 240.839 74.1035 240.057 73.0123L238.981 71.5125C238.462 70.7879 237.529 70.4896 236.685 70.7785L234.939 71.3765C233.669 71.8116 232.336 70.9092 232.268 69.5682L232.174 67.7251C232.129 66.8347 231.505 66.0793 230.639 65.8664L228.847 65.4255C227.543 65.1048 226.91 63.6248 227.577 62.4599L228.495 60.8587C228.938 60.0852 228.822 59.1125 228.209 58.4653L226.94 57.1255C226.016 56.1508 226.283 54.5632 227.474 53.9441L229.112 53.0932C229.903 52.6821 230.331 51.801 230.165 50.925L229.822 49.1118C229.572 47.7926 230.655 46.6013 231.992 46.7246L233.83 46.8941C234.717 46.976 235.554 46.4662 235.888 45.6396L236.579 43.9285Z" fill="#444444"/>
<defs>
<linearGradient id="paint0_linear_78_94" x1="87.1726" y1="133.467" x2="42.2029" y2="58.1987" gradientUnits="userSpaceOnUse">
<stop stop-color="#FFDDAF"/>
<stop offset="0.505774" stop-color="#D4F6FF"/>
<stop offset="1" stop-color="#C7E7FF"/>
</linearGradient>
</defs>
</svg>
