<svg width="16" height="14" viewBox="0 0 16 14" fill="none" xmlns="http://www.w3.org/2000/svg">
<path d="M2 0.150391H5C5.49065 0.150391 5.96165 0.344464 6.30859 0.691406C6.65554 1.03835 6.84961 1.50935 6.84961 2V8C6.84961 9.53801 6.44461 10.8009 5.66895 11.7734C4.89305 12.7462 3.73593 13.4418 2.20703 13.8242L2.20508 13.8252C2.09669 13.8531 1.98385 13.8586 1.87305 13.8428C1.76204 13.8269 1.65498 13.7897 1.55859 13.7324C1.46238 13.6752 1.37842 13.5995 1.31152 13.5098C1.24456 13.4198 1.19619 13.3168 1.16895 13.208C1.14177 13.0994 1.13579 12.9867 1.15234 12.876C1.16898 12.7652 1.20771 12.6584 1.26562 12.5625C1.32359 12.4666 1.39987 12.3827 1.49023 12.3164C1.58055 12.2502 1.68318 12.2023 1.79199 12.1758H1.79297C2.92622 11.8923 3.77072 11.4224 4.33008 10.7266C4.88998 10.0298 5.15039 9.12443 5.15039 8V6.84961H2L1.82617 6.8418C1.42268 6.80386 1.04073 6.63419 0.741211 6.35645C0.400496 6.04042 0.191572 5.60769 0.155273 5.14453L0.150391 4.99512V2C0.150391 1.50935 0.344464 1.03835 0.691406 0.691406C1.03835 0.344464 1.50935 0.150391 2 0.150391ZM11 0.150391H14C14.4907 0.150391 14.9617 0.344464 15.3086 0.691406C15.6555 1.03835 15.8496 1.50935 15.8496 2V8C15.8496 9.53801 15.4446 10.8009 14.6689 11.7734C13.8931 12.7462 12.7359 13.4418 11.207 13.8242L11.2051 13.8252C11.0967 13.8531 10.9838 13.8586 10.873 13.8428C10.762 13.8269 10.655 13.7897 10.5586 13.7324C10.4624 13.6752 10.3784 13.5995 10.3115 13.5098C10.2446 13.4198 10.1962 13.3168 10.1689 13.208C10.1418 13.0994 10.1358 12.9867 10.1523 12.876C10.169 12.7652 10.2077 12.6584 10.2656 12.5625C10.3236 12.4666 10.3999 12.3827 10.4902 12.3164C10.5805 12.2502 10.6832 12.2023 10.792 12.1758H10.793C11.9262 11.8923 12.7707 11.4224 13.3301 10.7266C13.89 10.0298 14.1504 9.12443 14.1504 8V6.84961H11L10.8262 6.8418C10.4227 6.80386 10.0407 6.63419 9.74121 6.35645C9.4005 6.04042 9.19157 5.60769 9.15527 5.14453L9.15039 4.99512V2C9.15039 1.50935 9.34446 1.03835 9.69141 0.691406C10.0383 0.344464 10.5093 0.150391 11 0.150391Z" fill="url(#paint0_linear_129_92)" stroke="#444444" stroke-width="0.3"/>
<defs>
<linearGradient id="paint0_linear_129_92" x1="8.04324" y1="11.6593" x2="9.96712" y2="1.27913" gradientUnits="userSpaceOnUse">
<stop stop-color="#FFDDAF"/>
<stop offset="0.5" stop-color="#C7E7FF"/>
<stop offset="0.75" stop-color="#D4F6FF"/>
<stop offset="1" stop-color="white"/>
</linearGradient>
</defs>
</svg>
