<svg width="173" height="52" viewBox="0 0 173 52" fill="none" xmlns="http://www.w3.org/2000/svg">
<path d="M70.7843 16.2288V51H64.206V16.2288H70.7843Z" fill="#444444"/>
<path d="M51.3169 44.7506H38.2542L36.0928 51H29.1855L40.9795 18.1553H48.6386L60.4326 51H53.4784L51.3169 44.7506ZM49.5314 39.488L44.7856 25.7674L40.0398 39.488H49.5314Z" fill="#444444"/>
<path d="M101.631 24.5927C104.733 24.5927 107.239 25.5795 109.149 27.553C111.06 29.4951 112.016 32.2205 112.016 35.7289V51H105.437V36.6217C105.437 34.5542 104.921 32.9723 103.887 31.8759C102.853 30.7482 101.443 30.1843 99.6578 30.1843C97.841 30.1843 96.4 30.7482 95.3349 31.8759C94.3012 32.9723 93.7843 34.5542 93.7843 36.6217V51H87.206V24.9686H93.7843V28.2108C94.6614 27.0831 95.7735 26.206 97.1205 25.5795C98.4988 24.9216 100.002 24.5927 101.631 24.5927Z" fill="#444444"/>
<path d="M78.7235 26.2414L78.6008 51.6429" stroke="#444444" stroke-width="6.5603"/>
<path d="M142.514 37.8904C142.514 35.259 143.031 32.9253 144.065 30.8891C145.13 28.853 146.555 27.2867 148.341 26.1903C150.158 25.0939 152.178 24.5457 154.402 24.5457C156.345 24.5457 158.036 24.9373 159.477 25.7204C160.949 26.5036 162.124 27.4903 163.001 28.6807V24.9686H169.627V51H163.001V47.194C162.155 48.4157 160.981 49.4338 159.477 50.2482C158.005 51.0314 156.298 51.4229 154.355 51.4229C152.163 51.4229 150.158 50.8591 148.341 49.7314C146.555 48.6037 145.13 47.0217 144.065 44.9856C143.031 42.9181 142.514 40.553 142.514 37.8904ZM163.001 37.9843C163.001 36.3867 162.688 35.0241 162.061 33.8964C161.435 32.7373 160.589 31.8602 159.524 31.265C158.459 30.6385 157.316 30.3253 156.094 30.3253C154.872 30.3253 153.745 30.6229 152.711 31.218C151.677 31.8132 150.831 32.6903 150.173 33.8494C149.547 34.9771 149.234 36.3241 149.234 37.8904C149.234 39.4566 149.547 40.8349 150.173 42.0253C150.831 43.1844 151.677 44.0771 152.711 44.7036C153.776 45.3301 154.904 45.6434 156.094 45.6434C157.316 45.6434 158.459 45.3458 159.524 44.7506C160.589 44.1241 161.435 43.247 162.061 42.1193C162.688 40.9602 163.001 39.5819 163.001 37.9843Z" fill="#444444"/>
<path d="M140.405 37.4205C140.405 38.3602 140.342 39.206 140.217 39.9578H121.187C121.343 41.8374 122.001 43.3097 123.16 44.3747C124.319 45.4398 125.745 45.9723 127.436 45.9723C129.88 45.9723 131.618 44.9229 132.652 42.8241H139.747C138.995 45.3301 137.554 47.3976 135.424 49.0265C133.294 50.6241 130.678 51.4229 127.577 51.4229C125.071 51.4229 122.816 50.8747 120.811 49.7784C118.837 48.6506 117.287 47.0687 116.159 45.0326C115.063 42.9964 114.514 40.647 114.514 37.9843C114.514 35.2903 115.063 32.9253 116.159 30.8891C117.255 28.853 118.79 27.2867 120.764 26.1903C122.737 25.0939 125.008 24.5457 127.577 24.5457C130.052 24.5457 132.26 25.0783 134.202 26.1433C136.176 27.2084 137.695 28.7277 138.76 30.7012C139.857 32.6433 140.405 34.8831 140.405 37.4205ZM133.592 35.5409C133.56 33.8494 132.949 32.5024 131.759 31.5C130.569 30.4662 129.112 29.9494 127.389 29.9494C125.76 29.9494 124.382 30.4506 123.254 31.453C122.158 32.4241 121.484 33.7867 121.234 35.5409H133.592Z" fill="#444444"/>
<path d="M11.2492 25.3583C11.4031 24.9662 11.8892 24.8307 12.2238 25.0867L14.4876 26.8178C14.7253 26.9997 15.0541 27.0047 15.2968 26.8294L17.6073 25.1604C17.9488 24.9139 18.4314 25.0624 18.5744 25.4585L19.5416 28.1391C19.6433 28.4207 19.9179 28.6028 20.2169 28.5865L23.0628 28.4309C23.4832 28.4082 23.8084 28.7946 23.7146 29.2052L23.0799 31.9835C23.0131 32.2754 23.1456 32.576 23.4059 32.7239L25.884 34.1327C26.2498 34.341 26.3147 34.8421 26.0138 35.1367L23.9771 37.1298C23.7633 37.3392 23.7124 37.6642 23.8512 37.9293L25.1744 40.4539C25.37 40.827 25.1535 41.2833 24.741 41.3685L21.9504 41.9446C21.6572 42.0052 21.438 42.2518 21.4115 42.55L21.1606 45.3886C21.1233 45.8081 20.6942 46.0755 20.3012 45.9242L17.6422 44.8994C17.363 44.7919 17.0459 44.8805 16.8624 45.1168L15.1161 47.3696C14.858 47.7024 14.3524 47.6955 14.1035 47.3558L12.4203 45.0563C12.2434 44.8148 11.9283 44.7171 11.646 44.817L8.9598 45.7675C8.56266 45.908 8.14138 45.6295 8.11574 45.209L7.94213 42.364C7.92378 42.0653 7.71212 41.8135 7.42081 41.7449L4.64676 41.0928C4.23689 40.9964 4.0332 40.534 4.23849 40.1665L5.63045 37.6789C5.77667 37.4176 5.73451 37.0919 5.52643 36.8766L3.54599 34.8272C3.25324 34.5244 3.33233 34.0251 3.70416 33.8272L6.21927 32.4884C6.48356 32.3477 6.62433 32.0498 6.56565 31.7562L6.00766 28.9616C5.92521 28.5486 6.2605 28.1721 6.68016 28.2064L9.5209 28.4395C9.81927 28.464 10.098 28.2895 10.2074 28.0109L11.2492 25.3583Z" fill="url(#paint0_linear_361_216)" stroke="#444444" stroke-width="0.0446082"/>
<path d="M76.8403 14.2681C77.0036 13.8637 77.5087 13.7284 77.8524 13.9969L78.3248 14.3659C78.5529 14.5441 78.871 14.5517 79.1074 14.3845L79.5968 14.0384C79.9529 13.7866 80.4509 13.9458 80.5949 14.3574L80.7928 14.9232C80.8883 15.1966 81.1518 15.3749 81.4411 15.3621L82.0399 15.3355C82.4756 15.3161 82.8085 15.7193 82.7071 16.1435L82.5676 16.7264C82.5003 17.0081 82.6255 17.3006 82.8758 17.4461L83.394 17.7475C83.7709 17.9668 83.833 18.486 83.5184 18.7879L83.0859 19.203C82.877 19.4035 82.8242 19.7172 82.9561 19.975L83.229 20.5087C83.4276 20.8969 83.1991 21.3673 82.7712 21.4512L82.183 21.5665C81.8988 21.6222 81.6848 21.8577 81.6563 22.1458L81.5974 22.7424C81.5546 23.1763 81.1081 23.4485 80.7027 23.2877L80.1455 23.0667C79.8764 22.96 79.569 23.0423 79.3893 23.2694L79.0172 23.7393C78.7466 24.0813 78.2238 24.0688 77.9697 23.7144L77.6205 23.2273C77.4517 22.9919 77.1487 22.895 76.8747 22.9889L76.3076 23.1831C75.8951 23.3244 75.462 23.0313 75.4399 22.5958L75.4094 21.9971C75.3947 21.7079 75.1922 21.4626 74.911 21.3934L74.3289 21.2502C73.9055 21.1461 73.6996 20.6654 73.9164 20.287L74.2145 19.7669C74.3585 19.5157 74.3207 19.1998 74.1215 18.9896L73.7093 18.5544C73.4094 18.2379 73.4961 17.7222 73.883 17.5211L74.4149 17.2447C74.6719 17.1112 74.8109 16.825 74.757 16.5405L74.6455 15.9516C74.5643 15.5231 74.9161 15.1362 75.3503 15.1762L75.9472 15.2313C76.2355 15.2579 76.5072 15.0923 76.6157 14.8238L76.8403 14.2681Z" fill="#444444"/>
<defs>
<linearGradient id="paint0_linear_361_216" x1="28.3134" y1="43.3499" x2="13.7074" y2="18.9029" gradientUnits="userSpaceOnUse">
<stop stop-color="#FFDDAF"/>
<stop offset="0.505774" stop-color="#D4F6FF"/>
<stop offset="1" stop-color="#C7E7FF"/>
</linearGradient>
</defs>
</svg>
